<?xml version="1.0" encoding="UTF-8" standalone="no"?> <!-- Created with Vectornator for iOS (http://vectornator.io/) --><!DOCTYPE svg PUBLIC "-//W3C//DTD SVG 1.1//EN" "http://www.w3.org/Graphics/SVG/1.1/DTD/svg11.dtd">
<svg height="100%" style="fill-rule:evenodd;clip-rule:evenodd;stroke-linecap:round;stroke-linejoin:round;" xmlns:xlink="http://www.w3.org/1999/xlink" xmlns="http://www.w3.org/2000/svg" xml:space="preserve" width="100%" xmlns:vectornator="http://vectornator.io" version="1.1" viewBox="0 0 848.956 755.533">
<metadata>
<vectornator:setting key="DynamicGuides" value="1"/>
<vectornator:setting key="Units" value="Points"/>
<vectornator:setting key="RulersVisible" value="1"/>
<vectornator:setting key="SnapToGuides" value="1"/>
<vectornator:setting key="GridSpacing" value="36"/>
</metadata>
<defs>
<path d="M0+0L848.956+0L848.956+755.533L0+755.533L0+0Z" id="Mask"/>
<path d="M0+755.533L834.96+755.533L834.96+649.739L0+649.739L0+755.533Z" id="Mask_2"/>
<path d="M0+0L848.956+0L848.956+755.533L0+755.533L0+0Z" id="Mask_3"/>
<path d="M252.794+306.587L287.088+306.587L287.088+291.448L252.794+291.448L252.794+306.587Z" id="Mask_4"/>
<path d="M244.192+301.496L250.816+301.496L250.816+294.945L244.192+294.945L244.192+301.496Z" id="Mask_5"/>
<path d="M227.383+433.193L379.719+433.193L379.719+288.957L227.383+288.957L227.383+433.193Z" id="Mask_6"/>
<path d="M227.383+433.193L379.719+433.193L379.719+288.957L227.383+288.957L227.383+433.193Z" id="Mask_7"/>
<path d="M420.16+434.474L516.288+434.474L516.288+370.754L420.16+370.754L420.16+434.474Z" id="Mask_8"/>
<path d="M478.253+452.862L639.839+452.862L639.839+358.194L478.253+358.194L478.253+452.862Z" id="Mask_9"/>
<path d="M348.237+676.437L625.071+676.437L625.071+512.265L348.237+512.265L348.237+676.437Z" id="Mask_10"/>
<path d="M85.1929+420.857L208.515+420.857L208.515+354.558L85.1929+354.558L85.1929+420.857Z" id="Mask_11"/>
<path d="M767.322+262.968L775.644+262.968L775.644+258.741L767.322+258.741L767.322+262.968Z" id="Mask_12"/>
<path d="M747.341+263.976L755.794+263.976L755.794+260.392L747.341+260.392L747.341+263.976Z" id="Mask_13"/>
<path d="M743.052+461.098L838.819+461.098L838.819+327.353L743.052+327.353L743.052+461.098Z" id="Mask_14"/>
<path d="M65.6965+261.157L287.678+261.157L287.678+75.427L65.6965+75.427L65.6965+261.157Z" id="Mask_15"/>
<path d="M65.6965+261.157L287.678+261.157L287.678+75.427L65.6965+75.427L65.6965+261.157Z" id="Mask_16"/>
<path d="M607.691+259.77L728.57+259.77L728.57+1.914L607.691+1.914L607.691+259.77Z" id="Mask_17"/>
<path d="M527.451+114.978L567.936+114.978L567.936+74.493L527.451+74.493L527.451+114.978Z" id="Mask_18"/>
<path d="M585.112+77.19L625.597+77.19L625.597+36.705L585.112+36.705L585.112+77.19Z" id="Mask_19"/>
<path d="M564.736+171.873L605.221+171.873L605.221+131.388L564.736+131.388L564.736+171.873Z" id="Mask_20"/>
<path d="M622.398+134.085L662.883+134.085L662.883+93.6L622.398+93.6L622.398+134.085Z" id="Mask_21"/>
<path d="M600.589+226.581L641.074+226.581L641.074+186.097L600.589+186.097L600.589+226.581Z" id="Mask_22"/>
<path d="M658.25+188.793L698.735+188.793L698.735+148.309L658.25+148.309L658.25+188.793Z" id="Mask_23"/>
<path d="M533.507+89.861L561.199+89.861L561.199+76.021L533.507+76.021L533.507+89.861Z" id="Mask_24"/>
<path d="M591.631+51.77L619.323+51.77L619.323+37.93L591.631+37.93L591.631+51.77Z" id="Mask_25"/>
<path d="M571.235+147.432L598.927+147.432L598.927+133.592L571.235+133.592L571.235+147.432Z" id="Mask_26"/>
<path d="M629.36+109.341L657.052+109.341L657.052+95.501L629.36+95.501L629.36+109.341Z" id="Mask_27"/>
<path d="M607.088+202.14L634.78+202.14L634.78+188.301L607.088+188.301L607.088+202.14Z" id="Mask_28"/>
<path d="M665.212+164.049L692.904+164.049L692.904+150.21L665.212+150.21L665.212+164.049Z" id="Mask_29"/>
</defs>
<g id="Untitled" vectornator:layerName="Untitled">
<g opacity="1">
<g opacity="1" vectornator:mask="#Mask">
<clipPath id="ClipPath">
<use xlink:href="#Mask" fill="none" overflow="visible"/>
</clipPath>
<g clip-path="url(#ClipPath)">
<g opacity="0.216006" vectornator:mask="#Mask_2">
<clipPath id="ClipPath_2">
<use xlink:href="#Mask_2" fill="none" overflow="visible"/>
</clipPath>
<g clip-path="url(#ClipPath_2)">
<path d="M383.06+649.748C358.608+649.832+334.156+650.51+309.748+653.64C300.545+654.82+291.535+657.416+282.31+658.463C263.886+660.555+245.79+664.456+227.3+666.257C212.411+667.706+197.458+668.56+182.612+670.399C168.692+672.124+153.282+671.727+139.47+668.878C129.245+666.769+118.972+665.582+108.918+662.195C97.6718+658.406+85.4538+655.698+73.7358+655.795C57.0258+655.935+40.7528+655.95+24.7628+662.64C19.1488+664.988+12.2768+668.849+8.0148+673.777C-1.74319+685.059-3.06418+713.209+6.6788+724.91C23.0898+744.603+58.1148+752.33+81.1178+752.695C106.324+753.095+130.811+750.937+156.055+749.669C179.511+748.49+202.909+746.812+226.405+746.872C274.392+746.992+322.384+746.872+370.285+743.176C415.288+739.703+460.404+740.895+505.507+740.895C551.757+740.895+597.694+741.314+643.611+748.402C663.617+751.49+683.999+752.57+704.106+754.734C722.113+756.672+739.418+754.696+757.353+752.905C772.414+751.401+787.376+746.941+801.059+739.403C811.889+733.436+831.197+714.895+834.519+700.651C843.829+660.717+703.294+661.677+681.716+661.767C657.577+661.866+633.247+662.782+609.128+661.721C598.982+661.274+588.985+658.988+579.083+656.483C569.22+653.987+559.282+654.622+549.28+653.573C507.57+649.2+465.767+649.839+423.923+649.839C410.307+649.839+396.684+649.701+383.06+649.748" opacity="0.600006" fill="#f1f2f2"/>
</g>
</g>
</g>
</g>
<g opacity="1" vectornator:mask="#Mask_3">
<clipPath id="ClipPath_3">
<use xlink:href="#Mask_3" fill="none" overflow="visible"/>
</clipPath>
<g clip-path="url(#ClipPath_3)">
<g opacity="1">
<path d="M248.866+699.438C245.624+699.547+242.509+698.819+239.324+698.526C237.681+666.958+240.664+633.874+241.958+602.156L266.286+603.454C260.639+620.405+256.608+637.893+254.25+655.604C253.877+658.411+249.328+699.422+248.866+699.438" opacity="1" fill="#bf7d6d"/>
<path d="M238.343+692.402C236.342+692.046+235.161+692.936+233.826+694.156C233.051+694.864+232.524+695.866+231.59+696.373C230.655+696.881+229.738+696.979+228.627+697.09C222.777+697.679+209.299+697.435+216.479+707.219C222.999+716.104+240.317+712.567+250.321+710.154C250.979+709.995+251.674+709.896+252.156+709.387C252.637+708.878+252.963+708.152+253.168+707.401C254.309+703.22+255.87+698+250.73+696.248C248.537+695.501+246.517+696.952+244.196+696.147C242.294+695.488+240.345+692.758+238.343+692.402" opacity="1" fill="#131321"/>
<path d="M223.775+621.195C240.313+620.875+256.851+620.553+273.388+620.233C286.767+556.547+298.548+492.526+308.717+428.249C309.506+423.265+310.274+418.083+308.838+413.246C306.122+404.097+296.324+398.878+286.943+397.126C272.366+394.402+245.583+398.195+238.107+413.35C230.207+429.369+231.533+457.976+229.617+475.676C224.388+523.976+222.43+572.631+223.775+621.195" opacity="1" fill="#292949"/>
<path d="M343.442+699.438C346.685+699.547+349.8+698.819+352.984+698.526C354.628+666.958+351.644+633.874+350.35+602.156C342.241+602.588+334.131+603.021+326.022+603.454C331.669+620.405+335.7+637.893+338.058+655.604C338.432+658.411+342.98+699.422+343.442+699.438" opacity="1" fill="#bf7d6d"/>
<path d="M353.966+692.402C355.968+692.046+357.149+692.936+358.483+694.156C359.258+694.864+359.785+695.866+360.72+696.373C361.654+696.881+362.571+696.979+363.683+697.09C369.533+697.679+383.011+697.435+375.831+707.219C369.31+716.104+351.992+712.567+341.988+710.154C341.331+709.995+340.636+709.896+340.154+709.387C339.672+708.878+339.346+708.152+339.141+707.401C338+703.22+336.439+698+341.58+696.248C343.773+695.501+345.793+696.952+348.113+696.147C350.015+695.488+351.965+692.758+353.966+692.402" opacity="1" fill="#131321"/>
<path d="M368.534+621.195C351.996+620.875+335.458+620.553+318.92+620.233C305.542+556.547+293.761+492.526+283.591+428.249C282.803+423.265+282.035+418.083+283.471+413.246C286.187+404.097+295.985+398.878+305.366+397.126C319.943+394.402+346.726+398.195+354.202+413.35C362.102+429.369+360.776+457.976+362.692+475.676C367.921+523.976+369.879+572.631+368.534+621.195" opacity="1" fill="#292949"/>
<path d="M163.476+214.272C163.788+214.366+164.108+214.467+164.37+214.64C166.813+216.254+167.121+218.559+169.023+220.773C169.871+221.761+173.189+221.309+172.42+223.917C172.137+224.879+171.109+227.142+170.484+229.188C169.574+232.172+170.225+236.505+171.375+239.85C175.897+252.991+183.872+264.537+192.117+275.711C192.587+276.348+193.087+277.005+193.798+277.354C195.071+277.979+196.579+277.44+197.899+276.925C204.023+274.536+210.37+272.717+216.83+271.5C222.594+270.415+228.608+269.818+234.277+271.323C239.946+272.829+245.245+276.782+247.009+282.376C248.33+286.565+247.476+291.377+244.792+294.855C238.138+303.479+222.755+299.401+213.441+298.751C204.63+298.136+195.861+296.904+187.222+295.063C186.155+294.835+185.058+294.585+184.167+293.957C183.217+293.288+182.596+292.257+182.005+291.256C174.403+278.363+167.982+264.872+161.801+251.18C160.102+247.418+160.598+243.241+158.996+239.776C157.974+237.564+155.581+236.565+154.155+234.692C152.744+232.839+151.363+230.047+150.736+227.806C149.498+223.387+152.419+219.654+154.651+216.142C155.207+215.267+155.58+214.675+156.423+214.194C157.795+213.411+159.314+213.616+160.828+213.764C161.725+213.853+162.619+214.012+163.476+214.272" opacity="1" fill="#bf7d6d"/>
<path d="M216.952+296.407C214.855+287.852+212.759+279.297+210.662+270.742C210.796+271.291+248.899+258.853+251.193+258.19C259.946+255.661+269.035+253.106+278.045+254.464C297.283+257.364+303.393+282.236+286.147+292.613C267.425+303.877+242.827+308.939+221.158+306.6C220.686+306.55+220.193+306.487+219.809+306.209C219.283+305.827+219.093+305.143+218.938+304.511C218.276+301.81+217.614+299.108+216.952+296.407" opacity="1" fill="#babcbe"/>
<path d="M326.127+271.974C339.385+284.593+349.317+300.803+355.299+317.594C365.892+347.328+366.096+379.075+366.194+410.185C366.226+420.539+366.258+430.893+366.291+441.248C366.323+451.434+365.422+453.628+354.351+452.284C333.835+449.796+312.507+445.566+293.918+436.449C285.072+432.111+276.806+426.631+267.53+423.215C254.04+418.246+240.209+420.496+226.861+417.263C230.247+407.029+235.309+397.683+237.663+386.946C240.02+376.2+241.132+365.215+241.874+354.241C243.169+335.061+245.557+315.995+246.995+296.888C248.025+283.203+246.222+271.995+260.779+263.018C268.703+258.132+283.119+249.769+294.3+252.031C306.165+254.431+318.716+264.921+326.127+271.974" opacity="1" fill="#babcbe"/>
<path d="M278.287+228.353C280.791+233.826+284.883+238.388+288.224+243.394C291.474+248.265+292.642+252.672+293.505+258.32C294.128+262.398+295.586+265.587+300.499+266.285C309.766+267.602+307.116+259.945+309.221+254.375C311.627+248.009+316.758+242.978+320.343+237.295C330.704+220.874+327.747+188.418+306.212+181.492C282.666+173.92+270.688+211.744+278.287+228.353" opacity="1" fill="#bf7d6d"/>
<path d="M315.822+212.463C318.495+212.571+321.435+212.782+323.418+214.578C325.4+216.374+325.185+220.289+322.568+220.713C320.195+221.096+317.123+218.62+315.674+220.427C314.827+221.484+315.571+223.029+316.214+224.264C318.68+229.004+319.418+234.5+318.267+239.549C319.243+240.453+320.766+239.515+321.624+238.572C325.881+233.897+329.207+228.435+331.385+222.542C332.24+223.968+333.494+225.182+334.973+226.016C334.086+223.8+334.647+221.376+335.195+219.115C337.207+210.809+338.576+201.077+332.776+194.29C329.672+190.658+324.952+188.568+320.206+187.69C315.46+186.812+310.622+187.025+305.839+187.242C303.792+187.335+301.271+187.776+300.779+189.669C305.267+191.469+309.911+194.975+312.158+199.225C312.848+200.53+315.549+212.452+315.822+212.463" opacity="1" fill="#292949"/>
<path d="M306.336+192.505C306.5+192.624+306.661+192.744+306.818+192.864C308.853+194.412+310.76+196.296+313.223+196.983C316.772+197.973+320.584+196.262+324.078+197.471C327.983+198.822+330.55+203.492+333.401+206.256C338.076+210.789+343.873+214.122+350.095+216.015C353.273+216.983+356.566+217.577+359.883+217.764C361.386+217.849+363.398+218.134+364.864+217.739C366.832+217.209+366.764+216.315+364.668+215.643C358.094+213.537+356.033+204.303+356.53+198.183C356.922+193.352+358.588+188.301+356.746+183.818C355.338+180.394+352.315+178.626+349.394+176.667C346.171+174.505+342.678+175.088+339.019+174.048C335.201+172.964+332.092+169.959+328.198+169.192C324.086+168.382+319.976+170.205+315.862+171.005C312.463+171.665+308.929+171.621+305.546+170.877C302.516+170.211+299.559+168.984+296.457+169.013C291.881+169.055+287.673+171.911+285.003+175.627C281.226+180.883+278.784+189.878+280.115+196.798C279.908+195.724+283.523+191.834+284.266+190.996C285.836+189.23+287.73+187.574+290.126+187.289C295.548+186.642+301.977+189.339+306.336+192.505" opacity="1" fill="#292949"/>
<path d="M331.76+331.99L378.704+370.421C394.018+382.958+396.345+405.443+383.903+420.642C371.459+435.841+348.958+438+333.644+425.463L286.699+387.032L331.76+331.99Z" opacity="1" fill="#ffffff"/>
<path d="M333.105+333.091L286.161+294.659C270.847+282.123+248.345+284.281+235.902+299.481C223.459+314.68+225.787+337.165+241.1+349.701L288.045+388.133L333.105+333.091Z" opacity="1" fill="#d67086"/>
<g opacity="0.287501" vectornator:mask="#Mask_4">
<clipPath id="ClipPath_4">
<use xlink:href="#Mask_4" fill="none" overflow="visible"/>
</clipPath>
<g clip-path="url(#ClipPath_4)">
<path d="M257.347+299.117C265.962+296.744+275.171+299.402+281.538+305.632C284.716+308.741+289.17+303.528+286+300.426C277.859+292.46+265.926+289.621+255.069+292.611C250.802+293.786+253.096+300.287+257.347+299.117" opacity="0.660004" fill="#ffffff"/>
</g>
</g>
<g opacity="0.287501" vectornator:mask="#Mask_5">
<clipPath id="ClipPath_5">
<use xlink:href="#Mask_5" fill="none" overflow="visible"/>
</clipPath>
<g clip-path="url(#ClipPath_5)">
<path d="M244.24+298.64C244.408+299.481+244.82+300.237+245.526+300.757L245.671+300.864C246.34+301.357+247.254+301.586+248.073+301.464C248.856+301.348+249.739+300.863+250.184+300.196C250.647+299.504+250.936+298.646+250.767+297.802C250.599+296.961+250.188+296.205+249.482+295.684L249.337+295.577C248.668+295.085+247.753+294.856+246.935+294.977C246.152+295.094+245.269+295.579+244.823+296.246C244.361+296.938+244.072+297.796+244.24+298.64" opacity="0.660004" fill="#ffffff"/>
</g>
</g>
<g opacity="0.00583132" vectornator:mask="#Mask_6">
<clipPath id="ClipPath_6">
<use xlink:href="#Mask_6" fill="none" overflow="visible"/>
</clipPath>
<g clip-path="url(#ClipPath_6)">
<g opacity="0.287501" vectornator:mask="#Mask_7">
<clipPath id="ClipPath_7">
<use xlink:href="#Mask_7" fill="none" overflow="visible"/>
</clipPath>
<g clip-path="url(#ClipPath_7)">
<path d="M250.356+343.027L295.956+380.358L297.301+381.459L342.9+418.79C353.624+427.568+367.869+429.131+379.719+424.067C366.874+435.687+347.036+436.426+333.126+425.04L287.526+387.709L286.182+386.608L240.582+349.277C225.268+336.74+222.94+314.256+235.384+299.056C239.113+294.5+243.751+291.126+248.823+288.958C247.526+290.131+246.299+291.413+245.158+292.806C232.715+308.006+235.042+330.49+250.356+343.027" opacity="0.660004" fill="#ffffff"/>
</g>
</g>
</g>
</g>
<path d="M311.206+405.854C311.16+405.532+311.115+405.2+311.161+404.888C311.589+401.992+313.548+400.737+314.749+398.077C315.285+396.89+313.471+394.076+316.159+393.668C317.151+393.518+319.636+393.492+321.754+393.192C324.843+392.753+328.494+390.331+331.037+387.873C334.455+384.569+337.996+380.994+340.86+377.247C346.875+369.375+352.704+359.95+357.118+351.066C342.772+343.123+333.586+326.672+334.351+310.292C334.43+308.58+334.63+306.809+335.511+305.339C336.256+304.097+337.433+303.17+338.67+302.416C351.755+294.438+358.753+307.178+364.822+317.207C368.609+323.466+372.058+330.061+374.882+336.814C378.838+346.272+375.717+354.531+370.241+362.888C364.438+371.745+358.401+380.613+350.818+388.065C347.133+391.686+343.031+394.353+338.945+397.433C334.907+400.477+336.488+402.105+333.637+405.676C332.046+407.669+330.801+410.001+328.86+411.669C325.38+414.662+320.762+413.594+316.635+413.058C315.607+412.925+314.913+412.837+314.12+412.277C312.83+411.366+312.373+409.903+311.867+408.468C311.567+407.619+311.333+406.741+311.206+405.854" opacity="1" fill="#bf7d6d"/>
<path d="M362.992+322.643C356.128+328.163+349.264+333.684+342.401+339.204C342.841+338.849+315.448+309.591+313.876+307.793C307.88+300.933+301.719+293.778+299.136+285.04C293.622+266.383+313.572+250.321+330.272+261.556C348.4+273.752+363.396+293.896+370.448+314.519C370.601+314.967+370.754+315.441+370.664+315.907C370.541+316.545+370.001+317.006+369.494+317.414C367.327+319.157+365.159+320.9+362.992+322.643" opacity="1" fill="#babcbe"/>
<path d="M505.105+254.617C511.526+250.68+519.73+251.207+525.595+255.933C536.312+264.569+547.029+273.205+557.748+281.843C567.733+289.889+575.751+299.888+589.32+300.135C598.443+300.3+619.142+306.582+622.023+316.846C622.636+319.028+622.334+321.349+622.027+323.595C621.695+326.021+620.476+329.17+618.053+328.82C616.885+328.652+616.041+327.657+615.305+326.735C613.164+324.052+610.664+321.224+607.272+320.693C601.671+319.817+594.248+323.623+588.267+323.901C579.553+324.305+570.826+325.24+562.128+325.911L504.04+284.287C493.68+276.863+494.239+261.279+505.105+254.617" opacity="1" fill="#bf7d6d"/>
<path d="M491.379+248.407C497.86+240.735+507.917+236.866+518.772+241.356C523.05+243.126+527.264+245.053+531.401+247.132C535.176+249.029+563.691+277.633+562.707+278.845C552.422+291.518+542.136+304.191+531.851+316.863C521.014+310.678+510.069+304.414+500.935+295.913C490.905+286.579+481.107+273.462+485.391+259.481C486.653+255.358+488.714+251.561+491.379+248.407" opacity="1" fill="#1c4f00"/>
<path d="M513.873+571.337L514.642+618.095C514.328+631.068+515.497+644.001+516.286+656.932C517.019+668.942+514.598+681.321+520.296+692.453C522.083+695.943+525.886+698.374+528.778+694.343C531.008+691.235+529.982+685.858+530.533+682.252C534.672+655.146+542.376+628.712+546.22+601.555C550.246+573.108+539.24+573.858+513.873+571.337" opacity="1" fill="#bf7d6d"/>
<path d="M516.529+684.46L513.523+692.26L528.316+705.281L541.868+705.839L546.25+698.689L528.024+682.842L516.529+684.46Z" opacity="1" fill="#131321"/>
<path d="M480.749+571.792L472.22+617.774C469.264+638.343+462.544+658.375+459.588+678.945C458.908+683.675+459.251+688.849+457.274+693.311C455.341+697.675+451.555+697.848+448.215+694.886C443.739+690.919+445.804+683.831+445.887+678.412C446.434+642.313+443.595+606.727+442.911+570.569C442.902+570.095+442.924+569.552+443.29+569.251C443.588+569.006+444.013+569.011+444.397+569.037C447.908+569.271+480.564+572.785+480.749+571.792" opacity="1" fill="#bf7d6d"/>
<path d="M445.781+686.38L441.092+693.3L452.564+709.323L465.64+712.926L471.523+706.949L457.344+687.398L445.781+686.38Z" opacity="1" fill="#131321"/>
<path d="M562.064+601.088L555.685+534.239L552.609+490.805L542.264+455.329L486.414+446.661L417.361+458.497L414.042+471.913L427.332+596.096L493.934+601.088L493.031+523.797L503.305+571.704L502.869+601.088L562.064+601.088Z" opacity="1" fill="#534741"/>
<path d="M429.48+313.171C429.386+315.428+429.324+317.684+429.284+319.935C428.476+365.789+431.004+412.228+431.294+458.462C454.973+454.755+478.911+452.713+502.876+452.351C508.423+452.267+533.643+456.161+537.153+452.85C541.919+448.356+536.678+449.201+537.027+443.346C537.479+435.77+533.838+429.566+535.213+420.588C536.829+410.037+540.044+399.601+541.896+389.052C546.981+360.188+545.767+333.281+542.017+304.267C539.836+287.392+536.909+269.089+527.689+254.416C521.097+243.926+507.615+239.455+495.592+238.175C471.051+235.562+446.582+248.401+437.196+271.676C431.906+284.793+430.07+298.994+429.48+313.171" opacity="1" fill="#ffffff"/>
<path d="M502.927+253.673L485.248+285.89C486.172+318.435+487.096+350.981+488.02+383.526C488.446+398.525+488.871+413.524+489.297+428.522C489.446+433.73+489.574+438.939+489.74+444.147C489.816+446.484+489.17+450.419+490.503+452.326C493.398+456.467+503.978+455.176+508.593+455.539C515.79+456.106+523.092+456.694+529.87+459.179C534.384+460.833+538.661+463.324+543.422+463.992C544.491+464.143+545.688+464.164+546.528+463.485C547.467+462.727+547.626+461.38+547.716+460.176C549.903+430.645+547.898+400.798+548.543+371.128C549.209+340.532+549.324+309.434+541.194+279.679C538.124+268.448+533.702+257.223+526.552+247.927C517.937+236.726+511.35+235.249+497.792+234.753C493.851+234.608+489.679+233.937+491.24+239.651C492.496+244.244+499.826+249.984+502.927+253.673" opacity="1" fill="#1c4f00"/>
<path d="M464.467+256.703L482.146+288.92C481.776+288.92+479.904+367.893+479.752+373.224C479.177+393.495+478.602+413.767+478.026+434.039C477.866+439.673+478.623+446.274+477.522+451.813C475.983+459.545+467.843+458.023+460.905+458.648C445.733+460.016+429.758+462.607+414.543+461.838C410.154+461.617+415.93+370.028+415.922+361.481C415.893+330.741+409.551+296.636+425.166+268.759C429.709+260.648+437.719+247.645+446.56+243.64C454.799+239.909+466.593+239.274+475.536+237.182L476.002+242.978L464.467+256.703Z" opacity="1" fill="#1c4f00"/>
<path d="M487.206+179.697C490.848+183.972+493.21+189.243+494.495+194.71C494.837+196.163+495.258+197.837+496.605+198.478C498.05+199.164+497.319+201.408+498.05+199.986C498.78+198.564+501.243+193.64+501.095+192.049C500.747+188.32+500.042+184.624+498.994+181.029C498.082+177.902+496.802+174.697+494.258+172.663C492.75+171.457+490.909+170.757+489.099+170.082C486.475+169.105+483.775+168.129+480.976+168.136C476.147+168.15+473.604+170.363+478.334+172.837C481.722+174.609+484.712+176.768+487.206+179.697" opacity="1" fill="#292949"/>
<path d="M469.899+247.738C470.357+249.988+470.337+252.416+472.659+253.789C473.774+254.449+475.131+254.542+476.427+254.503C479.778+254.403+483.102+253.527+486.066+251.962C487.286+251.319+488.473+250.533+489.273+249.41C490.218+248.083+490.078+247.021+489.859+245.559C489.602+243.846+489.619+242.053+489.515+240.286C489.288+236.422+488.788+232.578+488.178+228.758C493.584+226.743+499.813+223.694+500.617+217.48C500.87+215.522+500.511+213.513+500.155+211.55C498.68+203.43+497.206+195.31+495.732+187.191C495.222+184.383+494.682+181.492+493.229+179.071C490.68+174.823+485.884+172.912+481.362+171.993C469.82+169.649+457.364+172.186+448.65+180.273C446.332+182.425+444.25+185.023+443.28+188.198C441.785+193.094+443.119+198.538+444.454+203.609C445.686+208.289+446.919+212.969+448.151+217.65C449.569+223.033+451.576+229.159+456.358+231.239C458.897+232.344+461.857+232.075+464.17+233.688C468.209+236.504+467.573+241.972+469.365+245.971C469.616+246.53+469.775+247.128+469.899+247.738" opacity="1" fill="#bf7d6d"/>
<path d="M480.489+225.383C478.238+226.013+475.681+226.39+473.763+227.811C472.499+228.749+471.282+226.628+472.531+225.702C474.617+224.155+477.392+223.713+479.84+223.027C481.358+222.602+482.001+224.96+480.489+225.383M501.51+207.945C501.135+206.458+499.644+202.176+497.907+205.373C497.453+206.209+497.501+207.26+497.646+208.231C497.793+209.202+498.024+210.186+497.891+211.152C497.589+213.367+495.462+214.751+493.401+215.103C492.581+215.243+491.723+215.266+490.924+214.992C490.146+214.725+489.469+214.196+488.809+213.675C487.205+212.412+485.6+211.149+483.996+209.885C481.238+207.714+476.956+209.688+473.978+210.664C470.546+211.789+467.226+213.517+464.788+216.376C464.543+216.664+464.305+216.964+464.068+217.262C463.488+217.991+462.903+218.716+462.172+219.26C459.704+221.097+456.078+220.353+453.705+218.238C452.617+217.269+451.526+215.963+450.135+216.029C449.046+216.081+448.157+217.037+447.801+218.133C446.453+222.27+448.457+230.563+451.668+233.33C454.154+235.473+457.317+236.913+459.203+239.599C460.474+241.41+461.134+243.743+462.94+245.019C465.036+246.499+467.861+246.025+470.426+246.063C472.991+246.102+476.105+247.347+476.241+249.908L480.421+251.721C480.706+251.844+481.002+251.97+481.312+251.968C482.144+251.964+482.699+251.056+482.774+250.227C482.849+249.399+482.623+248.562+482.716+247.735C482.979+245.378+485.525+244.121+487.607+242.984C491.779+240.706+495.307+237.265+497.691+233.151C498.565+231.641+497.713+230.569+498.141+229.233C498.535+228.005+499.571+227.266+500.228+226.101C501.908+223.124+502.472+219.362+502.502+215.993C502.526+213.29+502.173+210.571+501.51+207.945" opacity="1" fill="#292949"/>
<path d="M491.506+163.328C491.309+161.7+491.083+160.106+489.904+159.06C488.819+158.097+487.148+157.87+486.291+156.698C485.89+156.149+485.718+155.448+485.267+154.938C484.485+154.056+483.139+154.014+481.962+154.094C479.325+154.274+476.646+154.756+474.05+155.199C471.961+155.556+470.234+156.941+468.105+157.239C465.405+157.617+462.708+157.982+460.06+158.643C454.88+159.937+450.047+162.172+446.02+165.723C439.177+171.755+435.527+179.521+436.027+188.638C436.503+197.346+441.382+207.915+447.628+214.037C447.173+211.781+444.862+206.692+444.989+204.442C444.908+202.226+445.26+200.008+445.924+197.897C447.249+193.681+449.816+189.857+453.05+186.865C458.204+182.094+464.637+178.87+471.253+176.638C476.733+174.789+482.46+172.924+488.296+172.786C492.814+172.68+496.997+172.808+492.815+167.671C491.857+166.495+491.694+164.895+491.506+163.328" opacity="1" fill="#292949"/>
<path d="M637.878+487.483C643.427+476.747+644.14+464.156+639.839+452.862L622.28+406.75L586.532+388.275L547.379+368.041L511.63+349.566L463.858+361.916C452.158+364.94+442.3+372.804+436.752+383.541L345.62+559.879C345.62+559.879+345.65+559.897+345.698+559.922C345.471+560.283+345.23+560.634+345.033+561.014C334.646+581.114+371.249+620.676+426.789+649.379C482.328+678.082+535.773+685.056+546.16+664.957C546.357+664.577+546.504+664.176+546.666+663.783C546.715+663.806+546.746+663.822+546.746+663.822L637.878+487.483Z" opacity="1" fill="#5d66d3"/>
<g opacity="0.00799964" vectornator:mask="#Mask_8">
<clipPath id="ClipPath_8">
<use xlink:href="#Mask_8" fill="none" overflow="visible"/>
</clipPath>
<g clip-path="url(#ClipPath_8)">
<path d="M420.159+434.474L444.086+388.176C452.25+372.379+471.675+366.191+487.473+374.355L516.287+389.246C516.287+389.246+467.197+369.628+420.159+434.474" opacity="0.199997" fill="#ffffff"/>
</g>
</g>
<path d="M688.718+361.896L509.789+269.426C507.901+268.45+505.578+269.19+504.603+271.078L465.284+347.159C464.309+349.047+465.048+351.369+466.937+352.345L645.865+444.815C647.754+445.791+650.076+445.052+651.052+443.163L690.37+367.083C691.346+365.194+690.607+362.872+688.718+361.896" opacity="1" fill="#292949"/>
<path d="M475.984+345.102L468.379+341.171L501.508+277.065L509.114+280.996L475.984+345.102Z" opacity="1" fill="#babcbe"/>
<path d="M492.235+353.501L484.629+349.57L517.759+285.464L525.365+289.395L492.235+353.501Z" opacity="1" fill="#babcbe"/>
<path d="M508.346+361.828L500.741+357.897L533.87+293.791L541.476+297.722L508.346+361.828Z" opacity="1" fill="#babcbe"/>
<path d="M524.597+370.226L516.992+366.295L550.121+302.189L557.727+306.12L524.597+370.226Z" opacity="1" fill="#babcbe"/>
<path d="M540.848+378.624L533.243+374.693L566.372+310.587L573.978+314.518L540.848+378.624Z" opacity="1" fill="#babcbe"/>
<path d="M557.099+387.023L549.493+383.092L582.623+318.986L590.229+322.917L557.099+387.023Z" opacity="1" fill="#babcbe"/>
<path d="M572.891+395.184L565.286+391.253L598.415+327.147L606.021+331.078L572.891+395.184Z" opacity="1" fill="#babcbe"/>
<path d="M589.142+403.582L581.537+399.651L614.666+335.545L622.272+339.476L589.142+403.582Z" opacity="1" fill="#babcbe"/>
<path d="M605.393+411.981L597.788+408.05L630.917+343.944L638.523+347.875L605.393+411.981Z" opacity="1" fill="#babcbe"/>
<path d="M621.644+420.379L614.039+416.448L647.168+352.342L654.774+356.273L621.644+420.379Z" opacity="1" fill="#babcbe"/>
<path d="M637.894+428.778L630.289+424.847L663.418+360.741L671.025+364.672L637.894+428.778Z" opacity="1" fill="#babcbe"/>
<path d="M654.145+437.176L646.54+433.245L679.669+369.139L687.275+373.07L654.145+437.176Z" opacity="1" fill="#babcbe"/>
<g opacity="0.00100018" vectornator:mask="#Mask_9">
<clipPath id="ClipPath_9">
<use xlink:href="#Mask_9" fill="none" overflow="visible"/>
</clipPath>
<g clip-path="url(#ClipPath_9)">
<path d="M478.254+358.194L639.839+452.862L634.548+438.967L478.254+358.194Z" opacity="0.100006" fill="#272525"/>
</g>
</g>
<path d="M430.117+396.378L631.244+500.32L559.257+639.613L358.13+535.671L430.117+396.378Z" opacity="1" fill="#ffffff"/>
<g opacity="0.000125023" vectornator:mask="#Mask_10">
<clipPath id="ClipPath_10">
<use xlink:href="#Mask_10" fill="none" overflow="visible"/>
</clipPath>
<g clip-path="url(#ClipPath_10)">
<path d="M348.237+584.688C359.425+604.824+388.638+629.663+426.789+649.378C482.328+678.082+535.773+685.056+546.16+664.957C546.357+664.577+546.504+664.176+546.666+663.783C546.715+663.806+546.746+663.822+546.746+663.822L625.071+512.265C625.071+512.265+521.161+674.053+348.237+584.688" opacity="0.0500031" fill="#272525"/>
</g>
</g>
<path d="M452.135+277.939C459.029+280.976+463.267+288.019+462.722+295.532C461.726+309.259+460.731+322.987+459.735+336.714C459.175+344.423+456.667+354.125+458.675+361.44C462.223+374.373+470.993+387.709+477.236+399.536C480.406+405.542+483.489+414.425+488.438+419.122C489.365+420.002+500.047+425.288+499.955+425.621C499.949+425.65+499.39+428.547+499.39+428.547L496.481+427.936L494.744+429.094L502.516+433.266L497.332+441.823C497.332+441.823+485.711+441.918+485.71+441.918C482.373+435.381+480.645+427.855+475.806+422.208C473.76+419.819+471.342+417.781+469.102+415.574C465.252+411.783+461.938+407.507+458.462+403.383C455.1+399.394+450.953+396.045+447.698+392.074C440.436+383.212+433.235+374.3+426.004+365.414L427.14+293.96C427.342+281.216+440.471+272.801+452.135+277.939" opacity="1" fill="#bf7d6d"/>
<path d="M449.423+263.119C459.421+264.078+468.328+270.141+470.819+281.62C471.801+286.145+472.616+290.707+473.264+295.292C473.854+299.475+466.58+339.203+465.023+339.085C448.748+337.848+432.475+336.61+416.2+335.372C415.113+322.941+414.029+310.377+415.815+298.027C417.776+284.468+422.979+268.943+436.91+264.503C441.019+263.193+445.314+262.725+449.423+263.119" opacity="1" fill="#1c4f00"/>
<path d="M608.946+324.762C608.967+325.461+608.81+326.33+608.638+326.925C607.89+329.505+607.024+332.049+606.036+334.547C608.686+335.132+611.286+335.946+613.797+336.977C616.568+334.49+619.093+331.729+621.322+328.746C621.948+327.908+622.562+327.031+622.847+326.025C623.892+322.332+622.319+316.753+618.647+315.709C616.578+315.121+614.467+314.824+612.405+314.073C610.75+313.47+608.669+312.106+606.83+312.482C603.775+313.109+603.193+317.387+602.852+319.888C602.647+321.396+601.226+330.491+604.895+327.045C605.678+326.309+606.093+325.25+606.863+324.5C608.435+322.967+608.915+323.65+608.946+324.762" opacity="1" fill="#eacdb0"/>
<path d="M192.408+657.361C192.162+656.748+191.827+656.124+191.395+655.49C189.103+652.132+185.343+649.897+181.692+647.793C172.525+642.509+163.12+637.287+152.693+634.645C137.052+630.683+120.665+632.943+105.302+636.849C91.3895+640.388+75.0965+643.765+62.1235+649.512C57.3355+651.633+52.3195+655.566+53.1625+660.396C53.4835+662.231+54.6315+663.842+55.8145+665.347C59.2475+669.714+63.2155+673.722+67.6195+677.273C70.4845+679.584+73.5765+681.723+77.0955+683.065C81.1795+684.624+85.6565+685.043+90.0645+685.347C110.376+686.751+131.084+685.922+150.907+681.382C160.632+679.154+197.728+670.668+192.408+657.361" opacity="1" fill="#292949"/>
<path d="M105.032+485.986C110.221+485.406+115.507+485.319+120.6+484.993C126.178+484.636+132.336+480.505+137.383+482.191C140.709+483.301+143.384+485.764+145.88+488.226C186.292+528.082+207.712+586.412+202.7+642.949C202.132+649.351+201.017+656.347+197.418+661.826C190.798+671.905+175.634+660.359+166.962+657.929C160.771+656.195+154.58+654.461+148.388+652.726C142.276+651.013+136.147+649.298+129.883+648.274C108.421+644.765+86.763+649.571+66.301+655.905C61.565+657.372+55.44+660.815+50.538+661.091C46.224+661.335+46.05+661.807+46.032+657.171C46.01+651.109+50.653+644.518+52.741+638.97C60.174+619.221+65.398+598.642+68.286+577.739C71.456+554.803+71.861+531.244+78.63+508.941C80.961+501.263+82.95+493.236+90.62+489.669C95.165+487.554+100.054+486.543+105.032+485.986" opacity="1" fill="#1c4f00"/>
<path d="M92.4241+453.865C105.517+458.399+121.107+451.902+133.499+457.95C141.556+461.882+146.176+470.571+146.382+479.001C146.553+486.027+145.898+495.312+139.05+499.751C134.384+502.775+128.504+503.836+122.814+504.784C117.618+505.65+112.058+506.453+107.163+504.585C102.86+502.943+99.7711+499.479+97.2601+495.946C92.2171+488.851+87.9641+477.022+88.5331+468.635C88.8791+463.545+90.6391+458.664+92.4241+453.865" opacity="1" fill="#bf7d6d"/>
<path d="M124.876+458.133C124.361+458.049+123.845+457.977+123.33+457.914C115.871+457.006+108.227+457.802+101.066+460.079C96.1633+461.639+90.9113+464.652+90.2213+470.299C89.9093+472.852+90.4363+475.424+90.9603+477.942C91.6173+481.096+92.2733+484.25+92.9303+487.404C93.0483+487.971+93.1663+488.568+92.9923+489.12C92.4663+490.799+89.8833+490.614+88.5763+489.437C83.8133+485.14+77.5583+478.091+75.1443+472.196C73.1753+467.388+73.8253+461.176+70.8073+456.866C68.8133+454.019+67.2593+449.594+64.2573+447.913C60.1393+445.609+55.9173+443.149+53.1463+439.329C50.3743+435.509+49.4443+429.94+52.2203+426.122C54.8613+422.489+59.8623+421.532+64.3543+421.572C68.8463+421.612+73.4703+422.339+77.7413+420.948C79.5923+420.347+81.3343+419.356+83.2653+419.086C89.5833+418.206+99.1523+420.646+104.686+423.867C109.847+426.872+114.732+430.689+120.567+431.966C125.247+432.99+130.141+432.279+134.885+432.948C142.799+434.066+149.947+439.182+153.966+446.09C158.47+453.831+159.836+464.401+154.945+472.12C152.493+475.99+150.69+480.146+148.846+484.316C148.206+485.764+144.008+491.475+143.424+486.458C142.97+482.564+143.785+478.603+143.305+474.711C142.134+465.228+133.719+459.564+124.876+458.133" opacity="1" fill="#292949"/>
<path d="M174.578+350.277C160.15+342.645+141.47+336.811+120.675+334.188C99.8814+331.565+80.3374+332.578+64.4654+336.388L30.5294+332.108L26.2064+369.572C27.6454+391.771+63.5674+413.544+109.928+419.392C156.288+425.239+196.493+413.069+203.399+391.922L208.515+354.558L174.578+350.277Z" opacity="1" fill="#d6d6d8"/>
<g opacity="0.00100018" vectornator:mask="#Mask_11">
<clipPath id="ClipPath_11">
<use xlink:href="#Mask_11" fill="none" overflow="visible"/>
</clipPath>
<g clip-path="url(#ClipPath_11)">
<path d="M175.568+382.357L175.568+382.358C175.568+382.358+146.857+424.05+85.1931+414.546C92.9691+416.65+101.266+418.299+109.928+419.392C156.289+425.24+196.493+413.069+203.399+391.922L208.515+354.558C206.943+367.015+194.357+376.813+175.568+382.357" opacity="0.100006" fill="#272525"/>
</g>
</g>
<path d="M124.896+300.731C75.7468+294.531+33.4968+308.58+30.5288+332.108C28.3158+349.657+48.5828+367.522+79.4208+378.042L144.686+304.317C138.369+302.808+131.747+301.595+124.896+300.731" opacity="1" fill="#ffffff"/>
<path d="M157.122+307.791L91.7019+381.69C98.8109+383.508+106.331+384.948+114.149+385.935C163.298+392.134+205.547+378.086+208.515+354.558C210.788+336.538+189.36+318.183+157.122+307.791" opacity="1" fill="#ffffff"/>
<path d="M144.844+304.368L79.5785+378.094C83.4115+379.396+87.4065+380.584+91.5425+381.646L156.956+307.752C153.067+306.503+149.023+305.371+144.844+304.368" opacity="1" fill="#d6d6d8"/>
<path d="M61.2776+553.367C53.2366+573.753+51.4796+597.244+53.2126+619.834C54.1506+632.063+56.0736+644.195+58.4446+656.222C60.6346+667.333+64.5676+678.712+65.6396+689.883C72.5116+689.758+79.4076+691.942+86.1796+690.772C86.5616+690.707+86.9566+690.624+87.2626+690.387C87.6426+690.092+87.8206+689.611+87.9806+689.157C89.4966+684.848+91.1816+681.275+92.1436+676.724C93.2456+671.517+94.2526+666.29+95.1646+661.046C96.9966+650.511+98.4486+639.909+99.5256+629.27C101.688+607.899+102.337+586.374+101.458+564.912C101.38+562.98+101.287+561.049+101.184+559.119C99.3886+525.78+71.8906+526.462+61.2776+553.367" opacity="1" fill="#292949"/>
<path d="M64.9695+704.115C65.1225+704.453+65.3245+704.763+65.5835+705.041C68.4855+708.145+74.8715+711.391+78.6915+713.302C79.8315+714.02+80.9815+714.744+82.2405+715.225C85.2395+716.371+88.5735+716.049+91.7615+715.663C94.7965+715.296+98.5415+714.23+99.0085+711.208C99.2845+709.42+98.2035+707.733+97.1725+706.246C96.5405+705.335+95.8765+704.392+94.9125+703.844C94.2955+703.492+93.5945+703.325+92.9115+703.134C90.4745+702.45+88.1395+701.406+86.0055+700.045C86.1775+695.38+86.0195+690.702+85.5345+686.059C85.6055+686.734+74.0275+686.185+72.9995+686.053C68.2885+685.446+68.2065+688.179+67.0725+692.513C66.2245+695.751+63.5815+701.054+64.9695+704.115" opacity="1" fill="#131321"/>
<path d="M104.662+553.688C99.1599+574.899+100.272+598.43+104.739+620.641C109.554+644.585+118.075+667.515+126.801+690.203C134.124+689.123+141.447+688.043+148.769+686.964C152.244+666.834+152.273+645.302+151.866+624.878C151.434+603.25+149.459+581.65+145.955+560.302C145.64+558.38+145.311+556.461+144.971+554.544C139.137+521.671+111.925+525.691+104.662+553.688" opacity="1" fill="#292949"/>
<path d="M150.344+702.134C145.601+705.125+140.858+708.117+136.115+711.109C134.975+711.827+133.825+712.552+132.566+713.032C129.567+714.179+126.232+713.856+123.045+713.47C120.01+713.103+116.265+712.037+115.798+709.016C115.522+707.227+116.603+705.54+117.634+704.053C118.266+703.142+118.93+702.2+119.894+701.652C120.511+701.3+121.212+701.132+121.895+700.941C124.332+700.257+126.667+699.213+128.801+697.852C128.63+693.187+128.787+688.51+129.272+683.866C134.407+684.55+139.656+684.383+144.738+683.374C146.024+690.202+148.382+696.153+150.344+702.134" opacity="1" fill="#131321"/>
<path d="M41.2708+395.982C41.7308+395.315+42.4518+394.849+43.7408+394.528C46.4898+393.841+49.1558+392.822+51.6618+391.499C52.3248+391.149+53.0078+390.768+53.7578+390.737C55.9698+390.646+57.8548+392.949+57.3278+394.885C56.7678+396.938+54.0488+398.225+52.7118+399.638C51.3118+401.12+52.8618+403.548+54.7658+403.307C55.7868+403.177+56.6438+402.438+57.2038+401.575C57.4698+401.166+57.7208+400.69+58.1768+400.515C61.4588+399.263+57.9678+407.87+56.7448+408.793C54.7628+410.289+53.3358+412.337+52.1488+414.49C51.0538+416.476+49.0448+419.97+49.3048+422.172C48.5598+422.853+48.8588+423.849+48.4538+424.926C45.4768+423.21+42.0928+422.204+38.6618+422.015C38.0588+414.366+38.6008+406.628+40.2578+399.137C40.5618+397.766+40.7468+396.744+41.2708+395.982" opacity="1" fill="#bf7d6d"/>
<path d="M36.1785+423.253C34.6165+432.218+32.0205+441.218+30.5645+450.201C28.7295+461.528+27.3355+472.924+26.1955+484.34C25.8735+487.561+25.5735+490.822+26.0745+494.019C26.9575+499.649+31.2755+504.71+35.6635+508.082C48.3825+517.857+62.0325+526.417+76.3685+533.61C77.1275+533.991+84.2865+515.783+84.8395+514.1C87.1005+507.222+88.0985+500.451+89.2275+493.346C89.2925+492.936+89.3515+492.486+89.1405+492.127C88.8575+491.644+88.2215+491.529+87.6645+491.464C78.3415+490.367+69.0565+488.941+59.8335+487.19C55.9895+486.459+51.1155+486.647+49.0925+482.791C47.5705+479.89+48.0405+476.413+48.4395+473.3C49.1345+467.882+49.7175+462.451+50.1895+457.01C51.1545+445.91+51.6575+434.771+51.6965+423.629C51.7025+421.926+38.5095+418.561+36.9005+418.485C36.6995+420.073+36.4555+421.662+36.1785+423.253" opacity="1" fill="#1c4f00"/>
<path d="M194.22+404.909C193.739+404.211+192.984+403.723+191.635+403.387C188.757+402.668+185.966+401.6+183.343+400.216C182.649+399.849+181.933+399.451+181.148+399.419C178.833+399.323+176.859+401.733+177.412+403.762C177.997+405.91+180.844+407.258+182.243+408.737C183.71+410.287+182.087+412.83+180.094+412.577C179.025+412.441+178.128+411.668+177.542+410.763C177.263+410.335+177.001+409.837+176.523+409.654C173.087+408.344+176.741+417.352+178.022+418.319C180.096+419.885+181.59+422.03+182.833+424.283C183.979+426.362+186.082+430.019+185.81+432.325C186.59+433.038+186.277+434.08+186.701+435.208C189.818+433.41+193.36+432.357+196.952+432.16C197.582+424.153+197.015+416.054+195.28+408.212C194.963+406.777+194.769+405.706+194.22+404.909" opacity="1" fill="#bf7d6d"/>
<path d="M195.855+431.773C197.276+439.926+199.637+448.113+200.96+456.283C202.629+466.586+203.897+476.949+204.935+487.333C205.227+490.261+205.501+493.228+205.044+496.135C204.241+501.256+200.314+505.859+196.323+508.925C184.756+517.816+172.341+525.602+159.301+532.144C158.611+532.491+152.101+515.93+151.597+514.399C150.574+511.286+149.327+508.232+148.38+505.186C147.471+502.262+148.412+498.957+146.545+496.293C145.366+494.612+143.35+493.727+141.948+492.226C141.211+491.438+140.711+490.055+141.553+489.379C141.884+489.114+142.332+489.054+142.755+489.018C145.871+488.753+149.048+489.234+151.946+490.408C155.725+491.938+157.98+492.671+162.042+492.042C166.153+491.403+170.253+490.7+174.341+489.923C177.836+489.259+182.27+489.43+184.109+485.923C185.494+483.285+185.066+480.123+184.703+477.291C184.072+472.364+183.542+467.424+183.111+462.475C182.234+452.38+181.776+442.249+181.741+432.115C181.736+430.566+193.735+427.506+195.198+427.437C195.38+428.881+195.603+430.327+195.855+431.773" opacity="1" fill="#1c4f00"/>
<path d="M696.005+687.601C692.935+687.805+690.124+686.726+687.149+686.391C687.29+675.877+688.429+665.795+690.694+655.414C695.323+660.553+699.222+657.566+699.064+667.221C699.013+670.346+695.403+682.845+696.005+687.601" opacity="1" fill="#bf7d6d"/>
<path d="M686.475+681.161C682.983+679.911+682.195+688.252+682.168+690.213C682.152+691.391+682.291+692.593+681.993+693.733C681.663+694.987+680.835+696.042+680.028+697.057C678.336+699.182+676.646+701.308+674.954+703.434C674.195+704.39+673.421+705.369+673.014+706.519C672.004+709.373+673.672+712.756+676.373+714.122C685.747+718.856+694.31+707.39+696.34+699.821C696.651+698.661+696.878+697.48+697.105+696.301C697.575+693.86+699.421+688.54+698.453+686.156C697.323+683.374+693.9+685.39+691.657+684.341C689.576+683.368+687.888+681.669+686.475+681.161" opacity="1" fill="#131321"/>
<path d="M753.069+514.357C744.331+538.148+734.247+561.419+728.496+586.323C721.391+617.088+709.938+647.09+704.059+677.924C700.261+678.047+696.454+677.885+692.679+677.44C688.352+676.929+681.485+675.761+679.923+671.037C679.126+668.622+679.971+664.695+680.093+662.186C680.483+654.152+681.057+646.126+681.648+638.104C683.32+615.407+684.466+592.432+688.64+570.057C693.033+546.519+697.238+522.9+701.102+499.365C703.099+487.201+705.558+475.113+708.584+463.163C709.364+460.084+717.482+428.345+719.075+428.599C737.99+431.609+755.684+437.873+772.157+447.642C773.757+448.591+775.303+449.722+775.86+451.413C776.417+453.103+775.912+454.56+775.395+456.093C770.472+470.723+763.909+484.442+758.66+499.014C756.834+504.084+754.981+509.153+753.069+514.357" opacity="1" fill="#1c4f00"/>
<path d="M765.979+683.575C768.917+684.489+771.902+684.095+774.874+684.462C777.186+674.204+778.426+664.135+778.642+653.511C772.943+657.429+769.848+653.617+767.752+663.043C767.074+666.095+767.672+679.091+765.979+683.575" opacity="1" fill="#bf7d6d"/>
<path d="M777.672+681.233C778.06+686.92+782.946+692.746+785.767+697.695C786.098+698.277+786.438+698.882+786.494+699.55C786.578+700.543+786.03+701.465+785.503+702.309C784.771+703.482+783.972+704.714+782.721+705.303C781.492+705.881+780.058+705.729+778.715+705.527C776.468+705.189+774.236+704.749+772.029+704.207C771.48+704.072+770.917+703.924+770.455+703.598C769.906+703.212+769.553+702.615+769.215+702.036C767.481+699.062+766.035+696.966+765.889+693.535C765.736+689.99+765.938+686.294+765.056+682.83C764.622+681.15+764.053+679.003+765.447+677.971C766.526+677.174+768.655+678.031+769.895+678.149C772.083+678.357+774.074+678.089+776.144+679.091C776.565+679.296+776.979+679.548+777.256+679.926C777.536+680.311+777.639+680.758+777.672+681.233" opacity="1" fill="#131321"/>
<path d="M750.844+501.803C753.8+526.975+758.185+551.954+757.976+577.514C757.718+609.088+761.867+640.932+760.402+672.287C764.066+673.292+767.807+674.022+771.58+674.467C775.907+674.979+782.858+675.444+785.477+671.212C786.816+669.05+786.907+665.033+787.374+662.566C788.866+654.661+790.178+646.722+791.472+638.783C795.134+616.322+799.371+593.712+800.524+570.98C801.737+547.066+803.149+523.117+804.874+499.33C805.766+487.035+806.19+474.707+806.032+462.38C805.99+459.204+805.49+426.449+803.88+426.324C784.785+424.845+766.118+426.814+747.823+432.477C746.045+433.028+744.279+433.768+743.344+435.282C742.408+436.796+742.56+438.329+742.704+439.942C744.084+455.316+747.271+470.186+748.981+485.58C749.575+490.936+750.198+496.297+750.844+501.803" opacity="1" fill="#1c4f00"/>
<path d="M744.55+296.696C744.241+296.8+743.935+296.91+743.63+297.026C738.542+298.957+734.214+302.432+729.98+305.852C723.62+310.988+720.488+313.24+718.032+320.848C715.741+327.943+714.308+335.435+712.905+342.747C705.703+380.282+704.312+417.661+699.144+455.48C697.737+465.774+696.65+477.875+704.263+484.946C717.772+474.433+734.751+473.825+751.135+473.812C762.64+473.801+773.889+470.074+785.421+471.359C796.443+472.586+806.07+469.831+817.255+470.56C819.952+470.735+823.388+470.705+824.451+468.221C824.985+466.974+822.574+461.295+822.277+459.729C821.693+456.658+821.301+453.555+821.001+450.445C819.921+439.251+818.371+428.367+816.772+417.238C816.21+413.329+815.648+409.401+815.722+405.453C815.788+401.932+816.361+398.442+816.791+394.946C819.269+374.849+817.047+354.301+811.397+334.856C810.219+330.8+809.744+326.083+808.154+322.289C806.693+318.8+804.312+315.316+802.129+312.237C797.507+305.715+791.48+300.108+783.883+297.306C773.804+293.589+761.957+293.559+751.44+295.123C749.107+295.47+746.782+295.941+744.55+296.696" opacity="1" fill="#8cabef"/>
<path d="M673.477+217.855C674.571+217.787+675.831+218.611+676.213+219.732C676.748+221.301+676.154+223.008+675.565+224.558C673.2+230.779+670.26+236.743+669.648+243.33C669.314+246.925+670.245+253.263+665.385+254.253C664.206+254.494+662.996+254.735+661.806+254.549C660.833+254.397+659.927+253.968+659.06+253.502C658.383+253.141+657.224+252.727+657.004+252.008C655.794+247.974+657.287+240.902+656.903+236.466C656.669+233.77+654.373+201.368+655.838+201.353L662.518+201.175C662.951+201.164+663.408+201.159+663.784+201.374C664.244+201.638+664.471+202.167+664.657+202.664C666.314+207.082+667.164+211.8+667.152+216.518C667.148+217.768+667.103+219.092+667.726+220.176C668.348+221.26+669.936+221.89+670.88+221.071C671.65+220.404+671.626+219.159+672.31+218.404C672.627+218.052+673.04+217.882+673.477+217.855" opacity="1" fill="#bf7d6d"/>
<path d="M651.375+300.942C651.599+279.992+652.633+243.405+656.883+243.151C663.604+242.759+670.401+243.713+676.755+245.941C676.469+260.692+674.758+276.582+679.292+290.889C682.997+302.58+695.31+302.402+705.481+301.67C719.704+300.645+733.142+299.683+747.364+297.418C748.311+297.267+749.339+297.129+750.177+297.592C751.097+298.099+751.519+299.178+751.813+300.186C752.438+302.319+752.806+304.521+753.063+306.729C754.026+314.997+753.37+323.659+749.688+331.125C746.006+338.591+738.964+344.675+730.718+345.813C725.976+346.466+721.176+345.505+716.485+344.548C706.326+342.476+697.278+338.011+687.501+334.509C676.023+330.397+664.955+325.344+654.223+319.571C653.274+319.052+652.277+318.476+651.774+317.519C651.372+316.751+651.348+315.847+651.336+314.98C651.318+313.735+651.297+308.304+651.375+300.942" opacity="1" fill="#8cabef"/>
<path d="M753.106+296.166C753.295+296.535+753.548+296.888+753.888+297.223C755.227+298.543+757.083+299.292+758.923+299.556C761.351+299.903+763.818+299.5+766.226+299.041C769.48+298.42+769.365+296.515+769.836+293.562C770.094+291.948+770.255+290.321+770.377+288.692C770.444+287.799+770.098+284.602+770.668+283.976C771.053+283.551+772.627+283.694+773.315+283.334C774.408+282.764+775.32+281.713+775.976+280.693C777.035+279.047+777.617+277.149+778.187+275.278C779.179+272.022+780.171+268.766+781.163+265.51C782.176+262.184+783.196+258.829+783.521+255.367C784.012+250.148+783.168+242.78+779.229+238.964C775.636+235.484+770.393+234.265+765.585+233.65C759.219+232.837+752.62+234.002+747.122+237.381C744.901+238.746+742.796+240.516+741.485+242.948C739.464+246.699+739.618+251.382+739.835+255.76C740.036+259.801+740.236+263.842+740.437+267.883C740.668+272.531+741.247+277.888+744.729+280.408C746.578+281.746+748.996+282.032+750.578+283.749C752.56+285.898+752.432+289.123+752.515+291.849C752.563+293.406+752.446+294.881+753.106+296.166" opacity="1" fill="#bf7d6d"/>
<path d="M773.259+243.926C773.478+244.305+773.661+244.698+773.803+245.107C774.545+247.25+774.044+249.668+774.769+251.817C775.917+255.223+779.892+257.27+780.491+260.815C780.981+263.714+779+266.469+778.833+269.405C778.651+272.611+780.704+275.646+780.385+278.811C780.109+281.56+778.364+285.424+776.723+287.628C777.232+286.945+781.834+287.188+783.028+286.459C784.858+285.342+785.066+284.637+785.611+282.731C786.151+280.839+785.732+278.973+786.574+277.034C787.608+274.655+789.731+272.909+790.474+270.373C791.488+266.911+789.647+263.259+789.79+259.655C790.008+254.199+794.723+249.06+793.012+243.875C792.008+240.833+789.054+238.889+787.394+236.15C786.132+234.071+785.666+231.619+784.792+229.35C783.917+227.08+782.413+224.81+780.08+224.121C778.784+223.739+777.39+223.896+776.062+223.649C773.766+223.221+771.858+221.636+769.645+220.888C766.48+219.817+760.896+223.018+759.049+225.7C757.215+228.363+758.14+230.627+760.015+232.981C763.137+236.902+770.682+239.468+773.259+243.926" opacity="1" fill="#292949"/>
<path d="M726.311+220.417C724.76+221.305+723.266+222.287+721.848+223.389C716.212+227.772+711.893+234.365+711.841+241.504C711.81+245.917+713.32+250.643+711.282+254.557C708.734+259.448+701.897+260.576+698.825+265.155C692.498+274.585+706.905+288.269+700.727+297.796C697.413+302.907+689.156+304.459+688.167+310.468C687.648+313.626+689.569+316.711+691.939+318.862C696.513+323.011+703.102+324.826+709.157+323.603C712.105+323.008+718.569+320.442+720.861+323.434C721.603+324.402+721.906+325.625+722.309+326.776C724.033+331.692+728.789+336.057+733.938+335.264C735.826+334.974+737.542+334.038+739.344+333.403C741.441+332.663+743.698+332.314+745.628+331.211C747.559+330.108+749.137+327.913+748.587+325.758C748.449+325.216+748.185+324.713+748.036+324.173C747.268+321.404+749.588+318.804+750.261+316.01C751.369+311.408+746.723+306.461+745.997+301.842C745.092+296.093+748.312+290.35+745.708+284.774C744.794+282.817+742.103+279.207+744.17+277.087C745.474+275.326+748.551+274.752+748.631+272.563C748.668+271.534+747.951+270.658+747.384+269.799C745.193+266.473+744.969+262.041+746.456+258.345C747.942+254.649+751.003+251.697+754.589+249.96C758.79+247.926+758.114+246.899+759.334+242.877C760.458+239.175+762.559+238.307+765.892+236.958C768.884+235.746+769.845+234.991+770.95+232.19C771.757+230.142+772.752+227.687+771.581+225.4C769.041+220.445+760.889+213.059+755.375+212.271C750.587+211.586+745.76+212.921+741.147+214.372C736.049+215.975+730.928+217.775+726.311+220.417" opacity="1" fill="#292949"/>
<g opacity="6.39678e-05" vectornator:mask="#Mask_12">
<clipPath id="ClipPath_12">
<use xlink:href="#Mask_12" fill="none" overflow="visible"/>
</clipPath>
<g clip-path="url(#ClipPath_12)">
<path d="M775.612+259.459C775.662+259.675+775.653+259.909+775.581+260.114C774.789+262.344+770.373+263.669+768.412+262.58C767.332+261.98+766.763+260.593+768.105+259.851C768.721+259.51+770.214+259.873+770.939+259.79C772.022+259.667+773.088+259.386+774.089+258.955C774.367+258.835+774.663+258.701+774.962+258.752C775.306+258.813+775.533+259.112+775.612+259.459" opacity="0.0399933" fill="#000000"/>
</g>
</g>
<g opacity="6.39678e-05" vectornator:mask="#Mask_13">
<clipPath id="ClipPath_13">
<use xlink:href="#Mask_13" fill="none" overflow="visible"/>
</clipPath>
<g clip-path="url(#ClipPath_13)">
<path d="M755.793+261.369C755.804+261.59+755.755+261.819+755.647+262.009C754.478+264.065+749.898+264.599+748.158+263.183C747.199+262.404+746.883+260.939+748.333+260.443C748.999+260.215+750.405+260.833+751.134+260.879C752.222+260.947+753.319+260.857+754.381+260.607C754.676+260.537+754.99+260.457+755.275+260.56C755.605+260.679+755.775+261.014+755.793+261.369" opacity="0.0399933" fill="#000000"/>
</g>
</g>
<path d="M838.874+389.283C839.019+428.801+807.102+460.953+767.584+461.097C728.067+461.242+695.915+429.325+695.77+389.807C695.626+350.29+727.543+318.138+767.061+317.993C806.577+317.849+838.729+349.766+838.874+389.283" opacity="1" fill="#ffffff"/>
<path d="M716.541+339.136C714.996+340.692+713.551+342.311+712.178+343.968L813.303+444.354C814.949+442.969+816.558+441.512+818.103+439.956C819.648+438.398+821.093+436.78+822.466+435.123L721.343+334.737C719.694+336.122+718.087+337.579+716.541+339.136" opacity="1" fill="#dddae8"/>
<g opacity="0.000125023" vectornator:mask="#Mask_14">
<clipPath id="ClipPath_14">
<use xlink:href="#Mask_14" fill="none" overflow="visible"/>
</clipPath>
<g clip-path="url(#ClipPath_14)">
<path d="M802.673+327.353C807.59+338.848+810.332+351.497+810.381+364.785C810.539+407.97+782.202+444.61+743.052+456.895C750.694+459.643+758.937+461.129+767.528+461.097C807.046+460.953+838.964+428.8+838.819+389.284C838.722+362.741+824.184+339.626+802.673+327.353" opacity="0.0500031" fill="#272525"/>
</g>
</g>
<path d="M759.896+381.964C759.883+380.867+760.706+379.651+761.762+379.324C763.242+378.868+764.795+379.548+766.205+380.214C771.859+382.888+777.25+386.122+783.326+387.064C786.641+387.576+792.558+386.965+793.25+391.867C793.417+393.058+793.584+394.278+793.357+395.458C793.171+396.421+792.731+397.305+792.26+398.148C791.893+398.805+791.456+399.943+790.779+400.126C786.985+401.132+780.5+399.287+776.373+399.448C769.793+399.706+761.578+401.473+755.822+397.411C755.063+396.875+754.329+396.239+753.901+395.377C753.082+393.725+753.566+391.706+754.068+389.912C754.166+389.564+754.273+389.198+754.521+388.951C754.706+388.767+754.95+388.67+755.189+388.586C757.314+387.843+759.875+388.87+761.78+387.823C762.813+387.256+763.47+385.701+762.755+384.718C762.172+383.915+761.018+383.877+760.35+383.156C760.04+382.821+759.901+382.402+759.896+381.964" opacity="1" fill="#bf7d6d"/>
<path d="M829.114+410.17C809.711+408.898+775.853+406.033+775.816+401.774C775.765+395.043+776.965+388.302+779.325+382.068C779.583+381.387+791.85+383.186+793.148+383.29C798.162+383.696+803.195+383.976+808.222+383.744C817.851+383.302+827.382+378.899+836.983+382.01C842.001+383.635+846.612+387.498+848.272+392.854C849.653+397.305+849.204+408.254+844.494+410.602C843.763+410.966+842.926+410.944+842.121+410.913C840.967+410.868+835.932+410.617+829.114+410.17" opacity="1" fill="#8cabef"/>
<path d="M143.056+121.216L206.31+65.6502C226.945+47.5242+258.085+49.2373+275.864+69.4772C293.643+89.7162+291.329+120.818+270.695+138.944L207.441+194.509L143.056+121.216Z" opacity="1" fill="#8cabef"/>
<path d="M144.868+119.625L81.614+175.19C60.979+193.316+58.665+224.418+76.444+244.658C94.223+264.897+125.364+266.61+145.998+248.484L209.253+192.918L144.868+119.625Z" opacity="1" fill="#ffffff"/>
<path d="M80.9539+215.384C79.7359+203.14+85.5019+191.18+95.4659+183.864C100.438+180.214+94.3839+173.018+89.4229+176.661C76.6829+186.014+70.0349+201.643+71.5689+217.073C72.1719+223.137+81.5549+221.426+80.9539+215.384" opacity="1" fill="#dddae8"/>
<path d="M77.2464+233.123C78.4304+233.077+79.5544+232.681+80.4284+231.832L80.6074+231.659C81.4334+230.855+81.9584+229.659+81.9844+228.519C82.0094+227.428+81.5544+226.121+80.7514+225.369C79.9174+224.589+78.8174+224.009+77.6294+224.055C76.4464+224.102+75.3214+224.498+74.4484+225.346L74.2684+225.52C73.4424+226.323+72.9174+227.519+72.8914+228.66C72.8674+229.751+73.3214+231.058+74.1244+231.809C74.9584+232.589+76.0584+233.17+77.2464+233.123" opacity="1" fill="#dddae8"/>
<g opacity="0.00583132" vectornator:mask="#Mask_15">
<clipPath id="ClipPath_15">
<use xlink:href="#Mask_15" fill="none" overflow="visible"/>
</clipPath>
<g clip-path="url(#ClipPath_15)">
<g opacity="0.287501" vectornator:mask="#Mask_16">
<clipPath id="ClipPath_16">
<use xlink:href="#Mask_16" fill="none" overflow="visible"/>
</clipPath>
<g clip-path="url(#ClipPath_16)">
<path d="M139.633+233.945L201.076+179.97L202.887+178.379L264.33+124.405C278.779+111.712+284.231+92.6592+280.106+75.4262C292.921+95.4372+289.296+122.604+270.554+139.068L209.111+193.043L207.3+194.634L145.857+248.608C125.222+266.735+94.0816+265.021+76.3026+244.781C70.9726+238.715+67.4626+231.67+65.6966+224.293C66.9906+226.314+68.4486+228.262+70.0786+230.118C87.8586+250.358+118.999+252.071+139.633+233.945" opacity="0.660004" fill="#ffffff"/>
</g>
</g>
</g>
</g>
<path d="M599.177+250.677L495.219+92.0441C490.002+84.0841+492.226+73.4011+500.187+68.1841L599.926+2.82213C607.886-2.39488+618.569-0.170883+623.785+7.78912L727.744+166.422C732.961+174.383+730.737+185.065+722.776+190.282L623.037+255.645C615.076+260.862+604.394+258.637+599.177+250.677" opacity="1" fill="#a3aab0"/>
<path d="M597.182+251.984L493.223+93.3512C488.006+85.3912+490.231+74.7082+498.191+69.4912L597.93+4.12923C605.891-1.08778+616.573+1.13622+621.789+9.09622L725.748+167.73C730.965+175.69+728.741+186.372+720.781+191.589L621.041+256.952C613.08+262.169+602.399+259.945+597.182+251.984" opacity="1" fill="#dddae8"/>
<g opacity="2.69968e-05" vectornator:mask="#Mask_17">
<clipPath id="ClipPath_17">
<use xlink:href="#Mask_17" fill="none" overflow="visible"/>
</clipPath>
<g clip-path="url(#ClipPath_17)">
<path d="M607.691+259.318C612.118+260.348+616.94+259.64+621.042+256.952L720.781+191.589C728.741+186.372+730.965+175.69+725.749+167.73L621.791+9.09621C619.384+5.4252+615.816+2.97821+611.889+1.91422L607.691+259.318Z" opacity="0.0299988" fill="#272525"/>
</g>
</g>
<g opacity="0.00100018" vectornator:mask="#Mask_18">
<clipPath id="ClipPath_18">
<use xlink:href="#Mask_18" fill="none" overflow="visible"/>
</clipPath>
<g clip-path="url(#ClipPath_18)">
<path d="M558.787+111.664C549.438+117.791+536.891+115.179+530.765+105.83C524.638+96.4804+527.25+83.9344+536.6+77.8074C545.949+71.6804+558.495+74.2924+564.622+83.6414C570.749+92.9914+568.137+105.537+558.787+111.664" opacity="0.100006" fill="#272525"/>
</g>
</g>
<path d="M561.003+82.888C567.13+92.238+564.518+104.784+555.168+110.911C545.818+117.038+533.273+114.426+527.145+105.076C521.018+95.727+523.63+83.18+532.98+77.054C542.329+70.926+554.876+73.538+561.003+82.888" opacity="1" fill="#d67086"/>
<path d="M524.259+89.8563C524.132+90.4633+524.039+91.0703+523.969+91.6753L563.429+99.8913C563.607+99.3093+563.763+98.7153+563.889+98.1083C564.016+97.5003+564.109+96.8943+564.179+96.2893L524.719+88.0733C524.541+88.6553+524.385+89.2493+524.259+89.8563" opacity="1" fill="#b25f75"/>
<g opacity="0.00100018" vectornator:mask="#Mask_19">
<clipPath id="ClipPath_19">
<use xlink:href="#Mask_19" fill="none" overflow="visible"/>
</clipPath>
<g clip-path="url(#ClipPath_19)">
<path d="M616.449+73.8763C607.099+80.0033+594.553+77.3913+588.427+68.0423C582.299+58.6923+584.911+46.1463+594.261+40.0193C603.61+33.8923+616.157+36.5043+622.284+45.8543C628.411+55.2033+625.799+67.7493+616.449+73.8763" opacity="0.100006" fill="#272525"/>
</g>
</g>
<g opacity="0.00100018" vectornator:mask="#Mask_20">
<clipPath id="ClipPath_20">
<use xlink:href="#Mask_20" fill="none" overflow="visible"/>
</clipPath>
<g clip-path="url(#ClipPath_20)">
<path d="M596.073+168.559C586.723+174.686+574.177+172.074+568.05+162.725C561.923+153.375+564.535+140.829+573.885+134.702C583.234+128.574+595.78+131.186+601.907+140.536C608.035+149.886+605.423+162.432+596.073+168.559" opacity="0.100006" fill="#272525"/>
</g>
</g>
<g opacity="0.00100018" vectornator:mask="#Mask_21">
<clipPath id="ClipPath_21">
<use xlink:href="#Mask_21" fill="none" overflow="visible"/>
</clipPath>
<g clip-path="url(#ClipPath_21)">
<path d="M653.734+130.771C644.384+136.898+631.838+134.286+625.712+124.937C619.585+115.587+622.197+103.041+631.547+96.9143C640.895+90.7873+653.442+93.3993+659.569+102.748C665.696+112.098+663.084+124.644+653.734+130.771" opacity="0.100006" fill="#272525"/>
</g>
</g>
<g opacity="0.00100018" vectornator:mask="#Mask_22">
<clipPath id="ClipPath_22">
<use xlink:href="#Mask_22" fill="none" overflow="visible"/>
</clipPath>
<g clip-path="url(#ClipPath_22)">
<path d="M631.926+223.268C622.576+229.395+610.03+226.783+603.903+217.433C597.776+208.084+600.388+195.538+609.738+189.41C619.087+183.283+631.633+185.895+637.76+195.245C643.888+204.595+641.276+217.141+631.926+223.268" opacity="0.100006" fill="#272525"/>
</g>
</g>
<g opacity="0.00100018" vectornator:mask="#Mask_23">
<clipPath id="ClipPath_23">
<use xlink:href="#Mask_23" fill="none" overflow="visible"/>
</clipPath>
<g clip-path="url(#ClipPath_23)">
<path d="M689.587+185.48C680.237+191.607+667.691+188.995+661.565+179.646C655.438+170.296+658.05+157.75+667.4+151.623C676.748+145.495+689.295+148.107+695.422+157.457C701.549+166.807+698.937+179.353+689.587+185.48" opacity="0.100006" fill="#272525"/>
</g>
</g>
<path d="M618.664+45.1C624.791+54.45+622.179+66.996+612.83+73.123C603.48+79.25+590.934+76.638+584.807+67.288C578.68+57.939+581.292+45.392+590.642+39.266C599.991+33.138+612.537+35.75+618.664+45.1" opacity="1" fill="#d67086"/>
<path d="M581.92+52.0682C581.794+52.6752+581.7+53.2822+581.631+53.8872L621.091+62.1032C621.268+61.5212+621.425+60.9272+621.551+60.3202C621.678+59.7122+621.771+59.1062+621.841+58.5012L582.381+50.2852C582.203+50.8672+582.047+51.4612+581.92+52.0682" opacity="1" fill="#b25f75"/>
<path d="M598.288+139.783C604.415+149.133+601.803+161.679+592.453+167.806C583.103+173.933+570.558+171.321+564.431+161.971C558.304+152.621+560.916+140.075+570.266+133.948C579.614+127.821+592.161+130.433+598.288+139.783" opacity="1" fill="#d67086"/>
<path d="M561.544+146.751C561.418+147.358+561.324+147.965+561.254+148.57L600.714+156.786C600.892+156.204+601.048+155.61+601.175+155.002C601.301+154.395+601.395+153.789+601.464+153.184L562.004+144.967C561.827+145.55+561.67+146.144+561.544+146.751" opacity="1" fill="#b25f75"/>
<path d="M655.95+101.995C662.077+111.345+659.465+123.891+650.115+130.018C640.765+136.145+628.22+133.533+622.092+124.183C615.965+114.834+618.577+102.287+627.927+96.16C637.276+90.033+649.822+92.645+655.95+101.995" opacity="1" fill="#d67086"/>
<path d="M619.206+108.963C619.079+109.57+618.986+110.177+618.916+110.782L658.376+118.998C658.553+118.416+658.71+117.822+658.836+117.214C658.963+116.607+659.056+116.001+659.126+115.396L619.666+107.18C619.488+107.762+619.332+108.356+619.206+108.963" opacity="1" fill="#b25f75"/>
<path d="M634.14+194.491C640.267+203.841+637.655+216.387+628.305+222.514C618.955+228.641+606.41+226.029+600.283+216.679C594.156+207.33+596.768+194.783+606.118+188.657C615.466+182.53+628.013+185.142+634.14+194.491" opacity="1" fill="#d67086"/>
<path d="M597.396+201.46C597.269+202.067+597.176+202.674+597.106+203.279L636.566+211.495C636.744+210.912+636.9+210.319+637.027+209.711C637.153+209.104+637.247+208.497+637.317+207.893L597.856+199.676C597.679+200.259+597.523+200.852+597.396+201.46" opacity="1" fill="#b25f75"/>
<path d="M691.803+156.703C697.93+166.052+695.318+178.599+685.968+184.726C676.618+190.853+664.073+188.241+657.945+178.891C651.818+169.541+654.43+156.995+663.78+150.868C673.129+144.741+685.676+147.353+691.803+156.703" opacity="1" fill="#d67086"/>
<path d="M655.058+163.672C654.931+164.279+654.838+164.886+654.768+165.491L694.228+173.707C694.405+173.125+694.562+172.531+694.688+171.923C694.815+171.316+694.908+170.71+694.978+170.105L655.518+161.888C655.34+162.471+655.184+163.064+655.058+163.672" opacity="1" fill="#b25f75"/>
<g opacity="0.0270008" vectornator:mask="#Mask_24">
<clipPath id="ClipPath_24">
<use xlink:href="#Mask_24" fill="none" overflow="visible"/>
</clipPath>
<g clip-path="url(#ClipPath_24)">
<path d="M561.199+89.8612C560.708+87.9542+559.906+86.0922+558.766+84.3532C553.243+75.9242+541.996+73.5102+533.507+78.8672C543.829+76.5042+554.975+80.5692+561.199+89.8612" opacity="0.300003" fill="#ffffff"/>
</g>
</g>
<g opacity="0.0270008" vectornator:mask="#Mask_25">
<clipPath id="ClipPath_25">
<use xlink:href="#Mask_25" fill="none" overflow="visible"/>
</clipPath>
<g clip-path="url(#ClipPath_25)">
<path d="M619.323+51.7699C618.832+49.8629+618.03+48.0009+616.89+46.2619C611.367+37.8329+600.12+35.4189+591.632+40.7759C601.954+38.4129+613.099+42.4779+619.323+51.7699" opacity="0.300003" fill="#ffffff"/>
</g>
</g>
<g opacity="0.0270008" vectornator:mask="#Mask_26">
<clipPath id="ClipPath_26">
<use xlink:href="#Mask_26" fill="none" overflow="visible"/>
</clipPath>
<g clip-path="url(#ClipPath_26)">
<path d="M598.928+147.432C598.437+145.525+597.635+143.663+596.495+141.924C590.972+133.495+579.725+131.081+571.236+136.438C581.558+134.075+592.704+138.14+598.928+147.432" opacity="0.300003" fill="#ffffff"/>
</g>
</g>
<g opacity="0.0270008" vectornator:mask="#Mask_27">
<clipPath id="ClipPath_27">
<use xlink:href="#Mask_27" fill="none" overflow="visible"/>
</clipPath>
<g clip-path="url(#ClipPath_27)">
<path d="M657.052+109.341C656.561+107.434+655.759+105.572+654.619+103.833C649.096+95.4042+637.849+92.9902+629.361+98.3472C639.683+95.9842+650.828+100.049+657.052+109.341" opacity="0.300003" fill="#ffffff"/>
</g>
</g>
<g opacity="0.0270008" vectornator:mask="#Mask_28">
<clipPath id="ClipPath_28">
<use xlink:href="#Mask_28" fill="none" overflow="visible"/>
</clipPath>
<g clip-path="url(#ClipPath_28)">
<path d="M634.78+202.141C634.289+200.234+633.487+198.372+632.347+196.633C626.824+188.204+615.577+185.79+607.088+191.147C617.41+188.784+628.556+192.849+634.78+202.141" opacity="0.300003" fill="#ffffff"/>
</g>
</g>
<g opacity="0.0270008" vectornator:mask="#Mask_29">
<clipPath id="ClipPath_29">
<use xlink:href="#Mask_29" fill="none" overflow="visible"/>
</clipPath>
<g clip-path="url(#ClipPath_29)">
<path d="M692.904+164.049C692.413+162.142+691.611+160.28+690.471+158.541C684.948+150.112+673.701+147.698+665.212+153.055C675.535+150.692+686.68+154.757+692.904+164.049" opacity="0.300003" fill="#ffffff"/>
</g>
</g>
</g>
</g>
</g>
</g>
</g>
</svg>
