<svg xmlns="http://www.w3.org/2000/svg" xmlns:xlink="http://www.w3.org/1999/xlink" style="isolation:isolate" viewBox="0 0 99.3 32"><defs><clipPath id="_clipPath_CHElavXocojbe8snPuFyFrXknbNzWTjZ"><rect width="99.3" height="32"/></clipPath></defs><g clip-path="url(#_clipPath_CHElavXocojbe8snPuFyFrXknbNzWTjZ)"><g><g><path d="M 3.454 2.184 L 95.846 2.184 C 97.752 2.184 99.3 3.732 99.3 5.638 L 99.3 26.362 C 99.3 28.268 97.752 29.816 95.846 29.816 L 3.454 29.816 C 1.548 29.816 0 28.268 0 26.362 L 0 5.638 C 0 3.732 1.548 2.184 3.454 2.184 Z" style="stroke:none;fill:#192428;stroke-miterlimit:10;"/><path d=" M 10.664 23.551 C 10.92 23.793 11.304 23.838 11.609 23.663 L 20.02 18.914 L 17.662 16.544 L 10.664 23.551 Z " fill="rgb(255,53,62)"/><path d=" M 17.662 16.522 L 20.011 14.161 L 11.609 9.412 C 11.497 9.348 11.371 9.312 11.242 9.308 L 11.083 9.308 C 10.931 9.335 10.791 9.404 10.677 9.507 L 17.662 16.522 Z " fill="rgb(0,240,111)"/><path d=" M 22.96 15.836 L 20.011 14.165 L 17.662 16.527 L 20.024 18.901 L 22.96 17.235 C 23.212 17.092 23.368 16.825 23.368 16.535 C 23.368 16.246 23.212 15.978 22.96 15.836 Z " fill="rgb(255,226,0)"/><path d=" M 10.414 10.102 L 10.414 22.968 C 10.412 23.191 10.504 23.404 10.668 23.555 L 17.662 16.527 L 10.677 9.524 C 10.512 9.671 10.416 9.881 10.414 10.102 Z " fill="rgb(0,193,244)"/><path d=" M 28.819 7.646 L 30.192 7.646 C 30.768 7.608 31.334 7.808 31.759 8.198 C 32.145 8.629 32.343 9.197 32.307 9.774 C 32.342 10.352 32.143 10.92 31.754 11.35 C 31.332 11.742 30.767 11.943 30.192 11.907 L 28.819 11.907 L 28.819 7.646 Z  M 30.174 11.579 C 30.65 11.613 31.119 11.449 31.469 11.126 C 31.786 10.748 31.941 10.261 31.901 9.77 Q 31.901 7.97 30.174 7.97 L 29.19 7.97 L 29.19 11.579 L 30.174 11.579 Z " fill="rgb(242,242,244)"/><path d=" M 33.624 11.76 C 33.418 11.633 33.253 11.448 33.149 11.229 C 32.923 10.718 32.923 10.135 33.149 9.623 C 33.253 9.404 33.418 9.22 33.624 9.092 C 34.063 8.843 34.601 8.843 35.04 9.092 C 35.247 9.219 35.412 9.403 35.515 9.623 C 35.736 10.136 35.736 10.717 35.515 11.229 C 35.412 11.449 35.247 11.634 35.04 11.76 C 34.601 12.01 34.063 12.01 33.624 11.76 Z  M 35.049 11.329 C 35.234 11.071 35.325 10.756 35.303 10.439 C 35.329 10.113 35.237 9.788 35.044 9.524 C 34.863 9.322 34.604 9.207 34.332 9.207 C 34.06 9.207 33.801 9.322 33.62 9.524 C 33.436 9.781 33.346 10.094 33.365 10.409 C 33.343 10.725 33.43 11.039 33.611 11.298 C 33.787 11.507 34.051 11.621 34.323 11.605 C 34.598 11.628 34.868 11.519 35.049 11.311 L 35.049 11.329 Z " fill="rgb(242,242,244)"/><path d=" M 40.428 8.976 L 40.808 8.976 L 39.72 11.907 L 39.34 11.907 L 38.477 9.455 L 37.587 11.907 L 37.207 11.907 L 36.145 8.976 L 36.538 8.976 L 37.402 11.471 L 38.304 8.976 L 38.667 8.976 L 39.53 11.471 L 40.428 8.976 Z " fill="rgb(242,242,244)"/><path d=" M 43.917 10.038 L 43.917 11.907 L 43.55 11.907 L 43.55 10.064 C 43.568 9.838 43.505 9.613 43.373 9.429 C 43.225 9.284 43.021 9.212 42.816 9.23 C 42.555 9.218 42.302 9.315 42.116 9.498 C 41.935 9.69 41.84 9.947 41.853 10.21 L 41.853 11.907 L 41.486 11.907 L 41.486 8.976 L 41.848 8.976 L 41.848 9.476 C 41.935 9.295 42.075 9.144 42.25 9.045 C 42.437 8.944 42.646 8.893 42.859 8.898 Q 43.917 8.902 43.917 10.038 Z " fill="rgb(242,242,244)"/><path d=" M 44.875 11.907 L 44.875 7.646 L 45.242 7.646 L 45.242 11.907 L 44.875 11.907 Z " fill="rgb(242,242,244)"/><path d=" M 46.675 11.76 C 46.469 11.633 46.304 11.448 46.2 11.229 C 45.975 10.718 45.975 10.135 46.2 9.623 C 46.304 9.404 46.469 9.22 46.675 9.092 C 47.114 8.843 47.652 8.843 48.091 9.092 C 48.298 9.219 48.464 9.403 48.566 9.623 C 48.788 10.136 48.788 10.717 48.566 11.229 C 48.464 11.449 48.298 11.634 48.091 11.76 C 47.652 12.01 47.114 12.01 46.675 11.76 Z  M 48.1 11.329 C 48.286 11.071 48.376 10.756 48.355 10.439 C 48.38 10.113 48.288 9.788 48.096 9.524 C 47.914 9.322 47.655 9.207 47.383 9.207 C 47.112 9.207 46.853 9.322 46.671 9.524 C 46.488 9.781 46.398 10.094 46.416 10.409 C 46.395 10.725 46.481 11.039 46.662 11.298 C 46.838 11.507 47.102 11.621 47.375 11.605 C 47.648 11.627 47.916 11.518 48.096 11.311 L 48.1 11.329 Z " fill="rgb(242,242,244)"/><path d=" M 51.468 9.179 C 51.661 9.415 51.755 9.716 51.731 10.02 L 51.731 11.907 L 51.377 11.907 L 51.377 11.38 C 51.301 11.558 51.173 11.709 51.01 11.812 C 50.842 11.912 50.649 11.963 50.453 11.959 C 50.274 11.96 50.096 11.92 49.935 11.842 C 49.784 11.772 49.656 11.661 49.564 11.523 C 49.479 11.395 49.432 11.245 49.43 11.091 C 49.418 10.906 49.478 10.723 49.598 10.582 C 49.754 10.44 49.95 10.35 50.159 10.323 C 50.52 10.263 50.886 10.237 51.252 10.245 L 51.377 10.245 L 51.377 10.02 C 51.394 9.813 51.336 9.606 51.213 9.438 C 51.077 9.303 50.889 9.236 50.699 9.252 C 50.527 9.251 50.355 9.276 50.19 9.325 C 50.011 9.384 49.841 9.466 49.685 9.571 L 49.546 9.286 C 49.708 9.172 49.887 9.084 50.077 9.027 C 50.273 8.965 50.477 8.933 50.682 8.932 C 50.966 8.903 51.25 8.992 51.468 9.179 Z  M 51.118 11.359 C 51.288 11.175 51.378 10.931 51.368 10.681 L 51.368 10.482 L 51.252 10.482 C 50.955 10.477 50.657 10.493 50.362 10.53 C 50.205 10.544 50.056 10.602 49.931 10.698 C 49.841 10.788 49.795 10.913 49.805 11.039 C 49.799 11.206 49.871 11.366 50 11.471 C 50.134 11.583 50.304 11.641 50.479 11.635 C 50.721 11.638 50.952 11.539 51.118 11.363 L 51.118 11.359 Z " fill="rgb(242,242,244)"/><path d=" M 55.189 7.646 L 55.189 11.907 L 54.831 11.907 L 54.831 11.346 C 54.748 11.527 54.61 11.678 54.438 11.778 C 54.25 11.885 54.037 11.938 53.821 11.933 C 53.58 11.938 53.342 11.872 53.138 11.743 C 52.937 11.616 52.775 11.435 52.672 11.221 C 52.558 10.967 52.502 10.691 52.508 10.413 C 52.502 10.14 52.558 9.868 52.672 9.619 C 52.873 9.17 53.325 8.887 53.816 8.902 C 54.032 8.897 54.246 8.951 54.434 9.058 C 54.606 9.158 54.743 9.308 54.827 9.489 L 54.827 7.646 L 55.189 7.646 Z  M 54.568 11.311 C 54.75 11.054 54.838 10.741 54.818 10.426 C 54.841 10.106 54.755 9.788 54.572 9.524 C 54.399 9.313 54.136 9.196 53.864 9.209 C 53.588 9.191 53.319 9.306 53.143 9.52 C 52.962 9.77 52.872 10.075 52.888 10.383 C 52.869 10.7 52.959 11.014 53.143 11.272 C 53.325 11.473 53.584 11.588 53.855 11.588 C 54.126 11.588 54.385 11.473 54.568 11.272 L 54.568 11.311 Z " fill="rgb(242,242,244)"/><path d=" M 58.19 8.976 L 59.053 8.976 L 59.053 9.274 L 58.19 9.274 L 58.19 11.907 L 57.823 11.907 L 57.823 9.274 L 57.244 9.274 L 57.244 8.976 L 57.823 8.976 L 57.823 8.829 C 57.799 8.516 57.899 8.206 58.099 7.965 C 58.333 7.748 58.643 7.631 58.963 7.642 L 59.174 7.642 L 59.204 7.944 L 58.928 7.944 C 58.722 7.942 58.525 8.027 58.384 8.177 C 58.255 8.354 58.192 8.571 58.207 8.79 L 58.19 8.976 Z " fill="rgb(242,242,244)"/><path d=" M 61.117 9.222 L 60.858 9.248 C 60.596 9.254 60.347 9.364 60.167 9.554 C 60.022 9.733 59.945 9.958 59.951 10.189 L 59.951 11.916 L 59.58 11.916 L 59.58 8.976 L 59.943 8.976 L 59.943 9.489 C 60.024 9.318 60.157 9.176 60.323 9.084 C 60.511 8.985 60.719 8.928 60.931 8.915 L 61.087 8.915 L 61.117 9.222 Z " fill="rgb(242,242,244)"/><path d=" M 62.028 11.76 C 61.822 11.633 61.657 11.448 61.553 11.229 C 61.327 10.718 61.327 10.135 61.553 9.623 C 61.657 9.404 61.822 9.22 62.028 9.092 C 62.473 8.834 63.021 8.834 63.466 9.092 C 63.673 9.219 63.838 9.403 63.941 9.623 C 64.162 10.136 64.162 10.717 63.941 11.229 C 63.838 11.449 63.673 11.634 63.466 11.76 C 63.027 12.01 62.489 12.01 62.05 11.76 L 62.028 11.76 Z  M 63.453 11.329 C 63.639 11.071 63.729 10.756 63.707 10.439 C 63.738 10.115 63.652 9.791 63.466 9.524 C 63.284 9.322 63.025 9.207 62.753 9.207 C 62.482 9.207 62.223 9.322 62.041 9.524 C 61.858 9.781 61.768 10.094 61.786 10.409 C 61.765 10.725 61.851 11.039 62.032 11.298 C 62.208 11.507 62.472 11.621 62.745 11.605 C 63.018 11.627 63.286 11.518 63.466 11.311 L 63.453 11.329 Z " fill="rgb(242,242,244)"/><path d=" M 69.005 10.038 L 69.005 11.907 L 68.647 11.907 L 68.647 10.064 C 68.666 9.839 68.612 9.615 68.491 9.425 C 68.365 9.284 68.179 9.21 67.99 9.226 C 67.752 9.216 67.522 9.315 67.364 9.494 C 67.2 9.697 67.117 9.954 67.131 10.215 L 67.131 11.907 L 66.764 11.907 L 66.764 10.064 C 66.784 9.839 66.729 9.615 66.609 9.425 C 66.482 9.284 66.297 9.21 66.108 9.226 C 65.87 9.216 65.639 9.315 65.482 9.494 C 65.317 9.697 65.234 9.954 65.249 10.215 L 65.249 11.907 L 64.882 11.907 L 64.882 8.976 L 65.244 8.976 L 65.244 9.459 C 65.318 9.28 65.447 9.129 65.611 9.027 C 65.779 8.93 65.97 8.881 66.164 8.885 C 66.563 8.845 66.936 9.085 67.066 9.463 C 67.148 9.283 67.284 9.132 67.455 9.032 C 67.637 8.926 67.845 8.872 68.055 8.876 Q 69.005 8.902 69.005 10.038 Z " fill="rgb(242,242,244)"/><path d=" M 35.273 18.236 L 35.273 21.811 C 34.878 21.999 34.46 22.135 34.03 22.217 C 33.545 22.315 33.052 22.364 32.557 22.364 C 31.861 22.388 31.17 22.24 30.546 21.932 C 29.994 21.64 29.542 21.189 29.25 20.637 C 28.923 20.006 28.762 19.301 28.784 18.59 C 28.761 17.903 28.91 17.22 29.216 16.604 C 29.508 16.053 29.959 15.602 30.511 15.309 C 31.115 14.994 31.79 14.836 32.471 14.852 C 32.969 14.847 33.464 14.92 33.939 15.067 C 34.35 15.19 34.731 15.394 35.062 15.668 L 34.552 16.816 C 34.25 16.594 33.917 16.418 33.563 16.294 C 33.227 16.185 32.876 16.131 32.523 16.134 Q 30.407 16.134 30.407 18.59 C 30.354 19.265 30.549 19.936 30.956 20.477 C 31.39 20.919 31.996 21.146 32.614 21.099 C 33.016 21.099 33.416 21.046 33.805 20.943 L 33.805 19.355 L 32.38 19.355 L 32.38 18.236 L 35.273 18.236 Z " fill="rgb(242,242,244)"/><path d=" M 37.561 22.044 C 37.164 21.835 36.836 21.514 36.62 21.12 C 36.179 20.237 36.179 19.197 36.62 18.314 C 36.833 17.915 37.161 17.588 37.561 17.377 C 38.46 16.949 39.504 16.949 40.402 17.377 C 40.8 17.582 41.127 17.901 41.343 18.293 C 41.785 19.176 41.785 20.215 41.343 21.099 C 41.125 21.504 40.789 21.833 40.381 22.044 C 39.49 22.473 38.452 22.473 37.561 22.044 Z  M 40.122 19.717 C 40.151 19.316 40.039 18.918 39.806 18.59 C 39.594 18.338 39.272 18.203 38.943 18.228 Q 37.803 18.228 37.803 19.687 Q 37.803 21.146 38.943 21.146 Q 40.1 21.159 40.1 19.696 L 40.122 19.717 Z " fill="rgb(242,242,244)"/><path d=" M 43.632 22.044 C 43.234 21.835 42.907 21.514 42.69 21.12 C 42.249 20.237 42.249 19.197 42.69 18.314 C 42.907 17.923 43.234 17.604 43.632 17.399 C 44.53 16.97 45.574 16.97 46.472 17.399 C 46.87 17.604 47.197 17.923 47.414 18.314 C 47.855 19.197 47.855 20.237 47.414 21.12 C 47.197 21.514 46.87 21.835 46.472 22.044 C 45.576 22.48 44.528 22.48 43.632 22.044 L 43.632 22.044 Z  M 46.196 19.696 C 46.225 19.308 46.121 18.921 45.903 18.599 C 45.69 18.346 45.368 18.211 45.039 18.236 Q 43.899 18.236 43.899 19.696 Q 43.899 21.155 45.039 21.155 Q 46.196 21.159 46.196 19.696 Z " fill="rgb(242,242,244)"/><path d=" M 53.89 17.179 L 53.89 21.716 C 53.939 22.411 53.682 23.093 53.186 23.581 C 52.593 24.039 51.852 24.261 51.105 24.203 C 50.668 24.204 50.233 24.149 49.81 24.039 C 49.42 23.941 49.047 23.784 48.704 23.573 L 49.136 22.493 C 49.733 22.837 50.408 23.023 51.096 23.033 Q 52.392 23.033 52.392 21.82 L 52.392 21.259 C 52.241 21.526 52.014 21.743 51.74 21.88 C 51.438 22.036 51.103 22.114 50.764 22.109 C 50.351 22.117 49.945 22.009 49.59 21.798 C 49.243 21.586 48.964 21.279 48.787 20.913 C 48.399 20.067 48.399 19.095 48.787 18.249 C 48.965 17.883 49.243 17.575 49.59 17.36 C 49.944 17.147 50.351 17.037 50.764 17.045 C 51.097 17.041 51.426 17.118 51.722 17.269 C 51.996 17.407 52.224 17.622 52.379 17.887 L 52.379 17.179 L 53.89 17.179 Z  M 52.029 20.576 C 52.248 20.297 52.357 19.947 52.335 19.592 C 52.356 19.236 52.247 18.885 52.029 18.603 C 51.812 18.357 51.493 18.225 51.165 18.245 C 50.838 18.227 50.52 18.359 50.302 18.603 C 50.081 18.884 49.97 19.236 49.991 19.592 C 49.971 19.946 50.082 20.295 50.302 20.572 C 50.53 20.803 50.841 20.933 51.165 20.933 C 51.49 20.933 51.801 20.803 52.029 20.572 L 52.029 20.576 Z " fill="rgb(242,242,244)"/><path d=" M 55.094 22.269 L 55.094 14.964 L 56.657 14.964 L 56.657 22.269 L 55.094 22.269 Z " fill="rgb(242,242,244)"/><path d=" M 62.438 20.019 L 59.122 20.019 C 59.135 20.355 59.277 20.672 59.52 20.905 C 59.785 21.103 60.113 21.201 60.443 21.181 C 60.709 21.18 60.973 21.136 61.225 21.051 C 61.479 20.967 61.718 20.843 61.933 20.684 L 62.365 21.729 C 62.093 21.935 61.785 22.09 61.458 22.187 C 61.111 22.295 60.75 22.35 60.387 22.351 C 59.645 22.392 58.917 22.138 58.362 21.643 C 57.852 21.132 57.582 20.429 57.62 19.709 C 57.61 19.23 57.72 18.757 57.939 18.331 C 58.143 17.942 58.451 17.618 58.829 17.395 C 59.222 17.167 59.67 17.05 60.124 17.058 C 60.763 17.027 61.383 17.282 61.816 17.753 C 62.257 18.28 62.481 18.954 62.442 19.64 L 62.438 20.019 Z  M 59.45 18.418 C 59.256 18.651 59.141 18.939 59.122 19.242 L 61.121 19.242 C 61.123 18.943 61.026 18.652 60.845 18.413 C 60.669 18.22 60.415 18.117 60.154 18.133 C 59.89 18.122 59.633 18.226 59.45 18.418 L 59.45 18.418 Z " fill="rgb(242,242,244)"/><path d=" M 66.397 14.964 L 69.756 14.964 C 70.429 14.922 71.092 15.136 71.613 15.564 C 72.069 16 72.312 16.613 72.277 17.243 C 72.312 17.874 72.069 18.487 71.613 18.923 C 71.092 19.35 70.429 19.565 69.756 19.523 L 68.029 19.523 L 68.029 22.269 L 66.414 22.269 L 66.397 14.964 Z  M 69.549 18.301 Q 70.762 18.301 70.762 17.256 C 70.786 16.958 70.675 16.665 70.46 16.458 C 70.197 16.266 69.874 16.174 69.549 16.199 L 68.016 16.199 L 68.016 18.301 L 69.549 18.301 Z " fill="rgb(242,242,244)"/><path d=" M 73.197 22.269 L 73.197 14.964 L 74.76 14.964 L 74.76 22.269 L 73.197 22.269 Z " fill="rgb(242,242,244)"/><path d=" M 79.906 17.593 C 80.304 18.053 80.5 18.654 80.45 19.26 L 80.45 22.282 L 78.965 22.282 L 78.965 21.509 C 78.866 21.767 78.684 21.984 78.447 22.126 C 78.186 22.282 77.887 22.36 77.584 22.351 C 77.259 22.355 76.939 22.284 76.647 22.144 C 76.378 22.013 76.149 21.811 75.986 21.561 C 75.825 21.315 75.741 21.026 75.744 20.732 C 75.732 20.419 75.833 20.112 76.029 19.868 C 76.279 19.622 76.599 19.459 76.945 19.402 C 77.513 19.291 78.092 19.242 78.672 19.255 L 78.939 19.255 L 78.939 19.07 C 78.963 18.837 78.891 18.605 78.741 18.426 C 78.544 18.283 78.301 18.216 78.058 18.241 C 77.777 18.246 77.498 18.291 77.229 18.375 C 76.928 18.464 76.638 18.589 76.366 18.746 L 75.934 17.701 C 76.27 17.509 76.63 17.364 77.005 17.269 C 77.39 17.154 77.79 17.093 78.192 17.088 C 78.808 17.02 79.426 17.202 79.906 17.593 Z  M 78.68 20.965 C 78.873 20.746 78.973 20.462 78.961 20.171 L 78.961 19.994 L 78.784 19.994 C 78.388 19.972 77.991 20.017 77.609 20.127 C 77.402 20.199 77.267 20.4 77.281 20.62 C 77.276 20.795 77.345 20.964 77.471 21.086 C 77.6 21.211 77.775 21.278 77.955 21.272 C 78.228 21.278 78.491 21.166 78.676 20.965 L 78.68 20.965 Z " fill="rgb(242,242,244)"/><path d=" M 85.143 17.192 L 86.676 17.192 L 83.611 24.134 L 82.03 24.134 L 83.006 21.975 L 80.912 17.179 L 82.54 17.179 L 83.835 20.412 L 85.143 17.192 Z " fill="rgb(242,242,244)"/></g></g></g></svg>